<svg xmlns="http://www.w3.org/2000/svg" xmlns:xlink="http://www.w3.org/1999/xlink" width="1920" height="1080" viewBox="0 0 1920 1080"><defs><g><g id="glyph-0-0"><path d="M 0.914062 0 L 0.914062 -0.394531 L 1.824219 -0.394531 L 1.824219 -4.328125 L 0.8125 -3.726562 L 0.8125 -4.210938 L 2.035156 -4.949219 L 3.058594 -4.949219 L 3.058594 -0.394531 L 3.972656 -0.394531 L 3.972656 0 Z"/></g><g id="glyph-0-2"><path d="M 1.488281 0 L 0.261719 -3.066406 L -0.121094 -3.066406 L -0.121094 -3.460938 L 1.863281 -3.460938 L 1.863281 -3.066406 L 1.445312 -3.066406 L 2.320312 -0.878906 L 3.191406 -3.066406 L 2.742188 -3.066406 L 2.742188 -3.460938 L 4.039062 -3.460938 L 4.039062 -3.066406 L 3.640625 -3.066406 L 2.414062 0 Z"/></g><g id="glyph-0-3"><path d="M 2.671875 -1.953125 C 2.671875 -2.410156 2.628906 -2.726562 2.546875 -2.910156 C 2.460938 -3.09375 2.316406 -3.1875 2.113281 -3.1875 C 1.914062 -3.1875 1.773438 -3.097656 1.6875 -2.917969 C 1.601562 -2.738281 1.558594 -2.433594 1.558594 -2.011719 L 1.558594 -1.953125 L 2.671875 -1.953125 M 3.9375 -1.566406 L 1.558594 -1.566406 L 1.558594 -1.539062 C 1.558594 -1.09375 1.625 -0.769531 1.761719 -0.570312 C 1.894531 -0.371094 2.113281 -0.273438 2.414062 -0.273438 C 2.660156 -0.273438 2.863281 -0.339844 3.015625 -0.472656 C 3.171875 -0.605469 3.269531 -0.796875 3.3125 -1.046875 L 3.855469 -1.046875 C 3.761719 -0.65625 3.574219 -0.367188 3.296875 -0.183594 C 3.019531 0.00390625 2.632812 0.09375 2.132812 0.09375 C 1.53125 0.09375 1.074219 -0.0625 0.753906 -0.378906 C 0.433594 -0.695312 0.273438 -1.144531 0.273438 -1.730469 C 0.273438 -2.304688 0.4375 -2.75 0.765625 -3.074219 C 1.09375 -3.394531 1.546875 -3.554688 2.132812 -3.554688 C 2.703125 -3.554688 3.144531 -3.386719 3.449219 -3.046875 C 3.757812 -2.710938 3.917969 -2.21875 3.9375 -1.566406 Z"/></g><g id="glyph-0-4"><path d="M 3.757812 -1.082031 C 3.675781 -0.6875 3.507812 -0.390625 3.253906 -0.195312 C 3 -0.00390625 2.652344 0.09375 2.214844 0.09375 C 1.597656 0.09375 1.121094 -0.0664062 0.78125 -0.382812 C 0.441406 -0.703125 0.273438 -1.152344 0.273438 -1.730469 C 0.273438 -2.304688 0.441406 -2.75 0.773438 -3.074219 C 1.109375 -3.394531 1.574219 -3.554688 2.167969 -3.554688 C 2.410156 -3.554688 2.652344 -3.53125 2.898438 -3.484375 C 3.140625 -3.441406 3.390625 -3.371094 3.644531 -3.28125 L 3.644531 -2.320312 L 3.28125 -2.320312 C 3.246094 -2.613281 3.160156 -2.832031 3.023438 -2.972656 C 2.886719 -3.117188 2.695312 -3.1875 2.449219 -3.1875 C 2.125 -3.1875 1.898438 -3.078125 1.761719 -2.859375 C 1.628906 -2.644531 1.558594 -2.269531 1.558594 -1.730469 C 1.558594 -1.207031 1.625 -0.835938 1.757812 -0.609375 C 1.890625 -0.386719 2.105469 -0.273438 2.40625 -0.273438 C 2.636719 -0.273438 2.824219 -0.34375 2.964844 -0.480469 C 3.105469 -0.621094 3.1875 -0.820312 3.21875 -1.082031 Z"/></g><g id="glyph-0-5"><path d="M 0.660156 -3.066406 L 0.160156 -3.066406 L 0.160156 -3.460938 L 0.660156 -3.460938 L 0.660156 -4.535156 L 1.8125 -4.535156 L 1.8125 -3.460938 L 2.773438 -3.460938 L 2.773438 -3.066406 L 1.8125 -3.066406 L 1.8125 -0.945312 C 1.8125 -0.644531 1.835938 -0.457031 1.882812 -0.382812 C 1.933594 -0.308594 2.019531 -0.273438 2.144531 -0.273438 C 2.285156 -0.273438 2.386719 -0.320312 2.453125 -0.414062 C 2.523438 -0.507812 2.558594 -0.652344 2.5625 -0.847656 L 3.046875 -0.847656 C 3.027344 -0.5 2.933594 -0.253906 2.761719 -0.117188 C 2.589844 0.0234375 2.296875 0.09375 1.882812 0.09375 C 1.40625 0.09375 1.085938 0.0195312 0.914062 -0.128906 C 0.746094 -0.277344 0.660156 -0.550781 0.660156 -0.945312 Z"/></g><g id="glyph-0-6"><path d="M 2.226562 -0.273438 C 2.46875 -0.273438 2.640625 -0.378906 2.738281 -0.585938 C 2.839844 -0.792969 2.886719 -1.175781 2.886719 -1.730469 C 2.886719 -2.289062 2.839844 -2.667969 2.742188 -2.875 C 2.644531 -3.082031 2.472656 -3.1875 2.226562 -3.1875 C 1.980469 -3.1875 1.808594 -3.082031 1.707031 -2.871094 C 1.609375 -2.664062 1.558594 -2.28125 1.558594 -1.730469 C 1.558594 -1.179688 1.609375 -0.800781 1.707031 -0.589844 C 1.808594 -0.378906 1.980469 -0.273438 2.226562 -0.273438 M 2.226562 0.09375 C 1.617188 0.09375 1.140625 -0.0664062 0.792969 -0.390625 C 0.445312 -0.714844 0.273438 -1.164062 0.273438 -1.730469 C 0.273438 -2.300781 0.445312 -2.75 0.792969 -3.070312 C 1.140625 -3.394531 1.617188 -3.554688 2.226562 -3.554688 C 2.839844 -3.554688 3.316406 -3.394531 3.660156 -3.070312 C 4.007812 -2.75 4.179688 -2.300781 4.179688 -1.730469 C 4.179688 -1.164062 4.007812 -0.714844 3.660156 -0.390625 C 3.3125 -0.0664062 2.835938 0.09375 2.226562 0.09375 Z"/></g><g id="glyph-0-7"><path d="M 3.582031 -3.5 L 3.582031 -2.46875 L 3.210938 -2.46875 C 3.199219 -2.652344 3.148438 -2.789062 3.0625 -2.878906 C 2.976562 -2.96875 2.851562 -3.015625 2.683594 -3.015625 C 2.433594 -3.015625 2.234375 -2.902344 2.089844 -2.683594 C 1.945312 -2.460938 1.871094 -2.152344 1.871094 -1.761719 L 1.871094 -0.394531 L 2.5 -0.394531 L 2.5 0 L 0.226562 0 L 0.226562 -0.394531 L 0.71875 -0.394531 L 0.71875 -3.066406 L 0.191406 -3.066406 L 0.191406 -3.460938 L 1.871094 -3.460938 L 1.871094 -2.84375 C 1.984375 -3.085938 2.132812 -3.265625 2.320312 -3.378906 C 2.503906 -3.496094 2.730469 -3.554688 3 -3.554688 C 3.070312 -3.554688 3.152344 -3.550781 3.246094 -3.539062 C 3.34375 -3.53125 3.453125 -3.515625 3.582031 -3.5 Z"/></g><g id="glyph-0-8"><path d="M 0.378906 -1.796875 L 0.378906 -2.511719 L 4.234375 -2.511719 L 3.8125 -3.515625 L 3.980469 -3.515625 L 5.339844 -2.171875 L 5.339844 -2.140625 L 3.980469 -0.792969 L 3.8125 -0.792969 L 4.234375 -1.796875 Z"/></g><g id="glyph-1-0"><path d="M 1.871094 -0.394531 L 2.367188 -0.394531 L 2.367188 0 L 0.226562 0 L 0.226562 -0.394531 L 0.71875 -0.394531 L 0.71875 -4.675781 L 0.226562 -4.675781 L 0.226562 -5.066406 L 1.871094 -5.066406 Z"/></g><g id="glyph-1-1"><path d="M 0.613281 -4.441406 C 0.613281 -4.617188 0.671875 -4.765625 0.792969 -4.882812 C 0.914062 -5.003906 1.0625 -5.066406 1.242188 -5.066406 C 1.410156 -5.066406 1.558594 -5.003906 1.679688 -4.882812 C 1.796875 -4.765625 1.859375 -4.617188 1.859375 -4.441406 C 1.859375 -4.269531 1.796875 -4.121094 1.679688 -4.003906 C 1.558594 -3.882812 1.410156 -3.820312 1.242188 -3.820312 C 1.0625 -3.820312 0.914062 -3.882812 0.792969 -4 C 0.671875 -4.121094 0.613281 -4.265625 0.613281 -4.441406 M 1.871094 -0.394531 L 2.367188 -0.394531 L 2.367188 0 L 0.226562 0 L 0.226562 -0.394531 L 0.71875 -0.394531 L 0.71875 -3.066406 L 0.226562 -3.066406 L 0.226562 -3.460938 L 1.871094 -3.460938 Z"/></g><g id="glyph-1-2"><path d="M 0.226562 0 L 0.226562 -0.394531 L 0.71875 -0.394531 L 0.71875 -3.066406 L 0.226562 -3.066406 L 0.226562 -3.460938 L 1.871094 -3.460938 L 1.871094 -2.972656 C 2.011719 -3.179688 2.167969 -3.328125 2.347656 -3.417969 C 2.523438 -3.507812 2.75 -3.554688 3.019531 -3.554688 C 3.410156 -3.554688 3.703125 -3.441406 3.902344 -3.210938 C 4.101562 -2.980469 4.199219 -2.644531 4.199219 -2.199219 L 4.199219 -0.394531 L 4.695312 -0.394531 L 4.695312 0 L 2.625 0 L 2.625 -0.394531 L 3.046875 -0.394531 L 3.046875 -2.234375 C 3.046875 -2.527344 3.007812 -2.730469 2.933594 -2.84375 C 2.859375 -2.957031 2.730469 -3.015625 2.546875 -3.015625 C 2.3125 -3.015625 2.144531 -2.929688 2.035156 -2.757812 C 1.925781 -2.589844 1.871094 -2.316406 1.871094 -1.945312 L 1.871094 -0.394531 L 2.296875 -0.394531 L 2.296875 0 Z"/></g><g id="glyph-1-3"><path d="M 2.671875 -1.953125 C 2.671875 -2.410156 2.628906 -2.726562 2.546875 -2.910156 C 2.460938 -3.09375 2.316406 -3.1875 2.113281 -3.1875 C 1.914062 -3.1875 1.773438 -3.097656 1.6875 -2.917969 C 1.601562 -2.738281 1.558594 -2.433594 1.558594 -2.011719 L 1.558594 -1.953125 L 2.671875 -1.953125 M 3.9375 -1.566406 L 1.558594 -1.566406 L 1.558594 -1.539062 C 1.558594 -1.09375 1.625 -0.769531 1.761719 -0.570312 C 1.894531 -0.371094 2.113281 -0.273438 2.414062 -0.273438 C 2.660156 -0.273438 2.863281 -0.339844 3.015625 -0.472656 C 3.171875 -0.605469 3.269531 -0.796875 3.3125 -1.046875 L 3.855469 -1.046875 C 3.761719 -0.65625 3.574219 -0.367188 3.296875 -0.183594 C 3.019531 0.00390625 2.632812 0.09375 2.132812 0.09375 C 1.53125 0.09375 1.074219 -0.0625 0.753906 -0.378906 C 0.433594 -0.695312 0.273438 -1.144531 0.273438 -1.730469 C 0.273438 -2.304688 0.4375 -2.75 0.765625 -3.074219 C 1.09375 -3.394531 1.546875 -3.554688 2.132812 -3.554688 C 2.703125 -3.554688 3.144531 -3.386719 3.449219 -3.046875 C 3.757812 -2.710938 3.917969 -2.21875 3.9375 -1.566406 Z"/></g></g></defs><g fill="#212529" fill-opacity="1"><use x="30" y="26.259" xlink:href="#glyph-0-0"/><use x="35" y="26.259" xlink:href="#glyph-0-1"/><use x="37" y="26.259" xlink:href="#glyph-0-2"/><use x="41" y="26.259" xlink:href="#glyph-0-3"/><use x="45" y="26.259" xlink:href="#glyph-0-4"/><use x="49" y="26.259" xlink:href="#glyph-0-5"/><use x="52" y="26.259" xlink:href="#glyph-0-6"/><use x="56" y="26.259" xlink:href="#glyph-0-7"/><use x="60" y="26.259" xlink:href="#glyph-0-1"/><use x="62" y="26.259" xlink:href="#glyph-0-8"/><use x="68" y="26.259" xlink:href="#glyph-0-1"/></g><g fill="#0366D6" fill-opacity="1"><use x="70" y="26.259" xlink:href="#glyph-1-0"/><use x="73" y="26.259" xlink:href="#glyph-1-1"/><use x="76" y="26.259" xlink:href="#glyph-1-2"/><use x="81" y="26.259" xlink:href="#glyph-1-3"/></g></svg>