<svg xmlns="http://www.w3.org/2000/svg" xmlns:xlink="http://www.w3.org/1999/xlink" width="1920" height="1080" viewBox="0 0 1920 1080"><defs><g><g id="glyph-0-0"><path d="M 9.933594 -2.773438 C 9.679688 -1.769531 9.21875 -1.027344 8.554688 -0.539062 C 7.890625 -0.0546875 7 0.1875 5.878906 0.1875 C 4.238281 0.1875 2.941406 -0.265625 1.988281 -1.167969 C 1.035156 -2.074219 0.558594 -3.300781 0.558594 -4.851562 C 0.558594 -6.402344 1.035156 -7.632812 1.988281 -8.539062 C 2.941406 -9.445312 4.238281 -9.894531 5.878906 -9.894531 C 6.457031 -9.894531 7.058594 -9.828125 7.683594 -9.6875 C 8.308594 -9.546875 8.96875 -9.339844 9.667969 -9.054688 L 9.667969 -6.667969 L 8.839844 -6.667969 C 8.671875 -7.484375 8.363281 -8.09375 7.917969 -8.5 C 7.46875 -8.90625 6.878906 -9.109375 6.144531 -9.109375 C 5.199219 -9.109375 4.496094 -8.757812 4.035156 -8.0625 C 3.578125 -7.367188 3.347656 -6.296875 3.347656 -4.851562 C 3.347656 -3.40625 3.578125 -2.335938 4.035156 -1.640625 C 4.496094 -0.945312 5.203125 -0.597656 6.160156 -0.597656 C 6.804688 -0.597656 7.332031 -0.777344 7.742188 -1.140625 C 8.15625 -1.5 8.453125 -2.042969 8.640625 -2.773438 Z"/></g><g id="glyph-0-1"><path d="M 4.453125 -0.546875 C 4.9375 -0.546875 5.28125 -0.753906 5.476562 -1.171875 C 5.675781 -1.589844 5.773438 -2.351562 5.773438 -3.464844 C 5.773438 -4.574219 5.675781 -5.335938 5.480469 -5.75 C 5.285156 -6.167969 4.945312 -6.375 4.453125 -6.375 C 3.960938 -6.375 3.617188 -6.164062 3.417969 -5.746094 C 3.21875 -5.328125 3.117188 -4.566406 3.117188 -3.464844 C 3.117188 -2.359375 3.21875 -1.597656 3.417969 -1.179688 C 3.617188 -0.757812 3.960938 -0.546875 4.453125 -0.546875 M 4.453125 0.1875 C 3.234375 0.1875 2.277344 -0.136719 1.585938 -0.785156 C 0.894531 -1.433594 0.546875 -2.328125 0.546875 -3.464844 C 0.546875 -4.605469 0.894531 -5.496094 1.585938 -6.140625 C 2.277344 -6.785156 3.234375 -7.109375 4.453125 -7.109375 C 5.675781 -7.109375 6.632812 -6.785156 7.324219 -6.140625 C 8.015625 -5.496094 8.359375 -4.605469 8.359375 -3.464844 C 8.359375 -2.328125 8.011719 -1.433594 7.320312 -0.785156 C 6.628906 -0.136719 5.671875 0.1875 4.453125 0.1875 Z"/></g><g id="glyph-0-2"><path d="M 0.457031 0 L 0.457031 -0.789062 L 1.4375 -0.789062 L 1.4375 -6.132812 L 0.457031 -6.132812 L 0.457031 -6.921875 L 3.742188 -6.921875 L 3.742188 -5.945312 C 4.019531 -6.355469 4.339844 -6.652344 4.695312 -6.835938 C 5.050781 -7.019531 5.5 -7.109375 6.042969 -7.109375 C 6.820312 -7.109375 7.40625 -6.878906 7.800781 -6.421875 C 8.199219 -5.964844 8.398438 -5.289062 8.398438 -4.402344 L 8.398438 -0.789062 L 9.386719 -0.789062 L 9.386719 0 L 5.253906 0 L 5.253906 -0.789062 L 6.09375 -0.789062 L 6.09375 -4.464844 C 6.09375 -5.050781 6.019531 -5.457031 5.867188 -5.6875 C 5.71875 -5.914062 5.460938 -6.027344 5.089844 -6.027344 C 4.625 -6.027344 4.285156 -5.859375 4.070312 -5.515625 C 3.851562 -5.175781 3.742188 -4.636719 3.742188 -3.894531 L 3.742188 -0.789062 L 4.589844 -0.789062 L 4.589844 0 Z"/></g><g id="glyph-0-3"><path d="M 7.519531 -2.160156 C 7.355469 -1.371094 7.015625 -0.78125 6.507812 -0.394531 C 5.996094 -0.00390625 5.304688 0.1875 4.425781 0.1875 C 3.195312 0.1875 2.238281 -0.128906 1.5625 -0.769531 C 0.886719 -1.40625 0.546875 -2.304688 0.546875 -3.464844 C 0.546875 -4.609375 0.882812 -5.503906 1.550781 -6.144531 C 2.21875 -6.789062 3.148438 -7.109375 4.335938 -7.109375 C 4.816406 -7.109375 5.304688 -7.0625 5.792969 -6.972656 C 6.285156 -6.882812 6.785156 -6.746094 7.292969 -6.5625 L 7.292969 -4.640625 L 6.5625 -4.640625 C 6.492188 -5.226562 6.320312 -5.664062 6.046875 -5.945312 C 5.773438 -6.230469 5.390625 -6.375 4.894531 -6.375 C 4.253906 -6.375 3.796875 -6.15625 3.523438 -5.722656 C 3.253906 -5.289062 3.117188 -4.535156 3.117188 -3.464844 C 3.117188 -2.417969 3.25 -1.667969 3.515625 -1.21875 C 3.78125 -0.769531 4.210938 -0.546875 4.8125 -0.546875 C 5.277344 -0.546875 5.648438 -0.6875 5.925781 -0.964844 C 6.207031 -1.242188 6.378906 -1.640625 6.4375 -2.160156 Z"/></g><g id="glyph-0-4"><path d="M 3.742188 -0.789062 L 4.734375 -0.789062 L 4.734375 0 L 0.457031 0 L 0.457031 -0.789062 L 1.4375 -0.789062 L 1.4375 -9.347656 L 0.457031 -9.347656 L 0.457031 -10.128906 L 3.742188 -10.128906 Z"/></g><g id="glyph-0-5"><path d="M 8.253906 -6.921875 L 8.253906 -0.789062 L 9.238281 -0.789062 L 9.238281 0 L 5.945312 0 L 5.945312 -0.976562 C 5.671875 -0.5625 5.355469 -0.265625 5 -0.0859375 C 4.644531 0.0976562 4.195312 0.1875 3.652344 0.1875 C 2.875 0.1875 2.289062 -0.0390625 1.890625 -0.496094 C 1.492188 -0.957031 1.296875 -1.628906 1.296875 -2.519531 L 1.296875 -6.132812 L 0.304688 -6.132812 L 0.304688 -6.921875 L 3.601562 -6.921875 L 3.601562 -2.878906 C 3.601562 -2.019531 3.671875 -1.472656 3.816406 -1.242188 C 3.957031 -1.007812 4.222656 -0.890625 4.601562 -0.890625 C 5.066406 -0.890625 5.40625 -1.0625 5.621094 -1.40625 C 5.835938 -1.75 5.945312 -2.292969 5.945312 -3.039062 L 5.945312 -6.132812 L 5.105469 -6.132812 L 5.105469 -6.921875 Z"/></g><g id="glyph-0-6"><path d="M 0.625 -0.203125 L 0.625 -2.136719 L 1.359375 -2.136719 C 1.421875 -1.617188 1.613281 -1.226562 1.941406 -0.953125 C 2.265625 -0.683594 2.707031 -0.546875 3.269531 -0.546875 C 3.738281 -0.546875 4.097656 -0.628906 4.34375 -0.789062 C 4.59375 -0.953125 4.71875 -1.1875 4.71875 -1.492188 C 4.71875 -1.769531 4.640625 -1.984375 4.484375 -2.136719 C 4.324219 -2.289062 4.015625 -2.417969 3.5625 -2.53125 L 2.609375 -2.773438 C 1.894531 -2.953125 1.375 -3.207031 1.054688 -3.539062 C 0.734375 -3.871094 0.574219 -4.320312 0.574219 -4.882812 C 0.574219 -5.632812 0.832031 -6.191406 1.355469 -6.558594 C 1.875 -6.925781 2.679688 -7.109375 3.761719 -7.109375 C 4.171875 -7.109375 4.605469 -7.074219 5.066406 -7.007812 C 5.53125 -6.941406 6.042969 -6.835938 6.601562 -6.691406 L 6.601562 -4.949219 L 5.867188 -4.949219 C 5.828125 -5.421875 5.660156 -5.777344 5.359375 -6.015625 C 5.0625 -6.253906 4.636719 -6.375 4.082031 -6.375 C 3.613281 -6.375 3.257812 -6.296875 3.015625 -6.148438 C 2.777344 -6 2.65625 -5.78125 2.65625 -5.496094 C 2.65625 -5.261719 2.726562 -5.074219 2.863281 -4.941406 C 3.003906 -4.808594 3.253906 -4.695312 3.613281 -4.601562 L 4.558594 -4.363281 C 5.464844 -4.132812 6.089844 -3.847656 6.4375 -3.507812 C 6.785156 -3.171875 6.960938 -2.699219 6.960938 -2.097656 C 6.960938 -1.316406 6.679688 -0.738281 6.121094 -0.367188 C 5.566406 0.00390625 4.699219 0.1875 3.523438 0.1875 C 3.09375 0.1875 2.636719 0.15625 2.15625 0.0898438 C 1.671875 0.0273438 1.164062 -0.0703125 0.625 -0.203125 Z"/></g><g id="glyph-0-7"><path d="M 1.222656 -8.878906 C 1.222656 -9.230469 1.34375 -9.527344 1.589844 -9.769531 C 1.832031 -10.007812 2.128906 -10.128906 2.480469 -10.128906 C 2.824219 -10.128906 3.113281 -10.007812 3.355469 -9.769531 C 3.597656 -9.527344 3.71875 -9.230469 3.71875 -8.878906 C 3.71875 -8.539062 3.597656 -8.246094 3.355469 -8.003906 C 3.113281 -7.761719 2.824219 -7.644531 2.480469 -7.644531 C 2.128906 -7.644531 1.832031 -7.761719 1.589844 -8 C 1.34375 -8.238281 1.222656 -8.53125 1.222656 -8.878906 M 3.742188 -0.789062 L 4.734375 -0.789062 L 4.734375 0 L 0.457031 0 L 0.457031 -0.789062 L 1.4375 -0.789062 L 1.4375 -6.132812 L 0.457031 -6.132812 L 0.457031 -6.921875 L 3.742188 -6.921875 Z"/></g></g></defs><g fill="#212529" fill-opacity="1"><use x="30" y="32.52" xlink:href="#glyph-0-0"/><use x="41" y="32.52" xlink:href="#glyph-0-1"/><use x="50" y="32.52" xlink:href="#glyph-0-2"/><use x="60" y="32.52" xlink:href="#glyph-0-3"/><use x="68" y="32.52" xlink:href="#glyph-0-4"/><use x="73" y="32.52" xlink:href="#glyph-0-5"/><use x="83" y="32.52" xlink:href="#glyph-0-6"/><use x="91" y="32.52" xlink:href="#glyph-0-7"/><use x="96" y="32.52" xlink:href="#glyph-0-1"/><use x="105" y="32.52" xlink:href="#glyph-0-2"/></g></svg>