<svg xmlns="http://www.w3.org/2000/svg" xmlns:xlink="http://www.w3.org/1999/xlink" width="1920" height="1080" viewBox="0 0 1920 1080"><defs><g><g id="glyph-0-0"><path d="M 4.140625 -5.253906 C 3.859375 -5.085938 3.640625 -4.882812 3.484375 -4.640625 C 3.324219 -4.402344 3.210938 -4.109375 3.144531 -3.753906 L 3.101562 -3.546875 L 2.078125 -3.546875 C 2.199219 -4.070312 2.402344 -4.511719 2.683594 -4.867188 C 2.96875 -5.226562 3.351562 -5.527344 3.839844 -5.773438 L 4.140625 -5.253906 M 2.375 -5.253906 C 2.09375 -5.085938 1.878906 -4.882812 1.71875 -4.640625 C 1.5625 -4.402344 1.449219 -4.109375 1.382812 -3.753906 L 1.339844 -3.546875 L 0.320312 -3.546875 C 0.441406 -4.070312 0.640625 -4.511719 0.925781 -4.871094 C 1.207031 -5.230469 1.589844 -5.527344 2.074219 -5.773438 Z"/></g><g id="glyph-0-1"><path d="M -0.183594 0 L -0.09375 -0.460938 L 0.628906 -0.460938 L 1.558594 -5.210938 L 0.832031 -5.210938 L 0.917969 -5.667969 L 3.835938 -5.667969 L 3.75 -5.210938 L 3.019531 -5.210938 L 2.109375 -0.519531 L 4.339844 -0.519531 L 4.511719 -1.417969 L 5.023438 -1.417969 L 4.75 0 Z"/></g><g id="glyph-0-2"><path d="M 1.148438 -5.179688 C 1.1875 -5.386719 1.292969 -5.558594 1.460938 -5.699219 C 1.628906 -5.839844 1.816406 -5.910156 2.019531 -5.910156 C 2.21875 -5.910156 2.378906 -5.839844 2.492188 -5.695312 C 2.574219 -5.59375 2.617188 -5.472656 2.617188 -5.332031 C 2.617188 -5.285156 2.613281 -5.234375 2.601562 -5.179688 C 2.5625 -4.980469 2.460938 -4.808594 2.292969 -4.667969 C 2.125 -4.527344 1.9375 -4.457031 1.738281 -4.457031 C 1.535156 -4.457031 1.375 -4.527344 1.261719 -4.667969 C 1.175781 -4.769531 1.132812 -4.890625 1.132812 -5.03125 C 1.132812 -5.078125 1.136719 -5.128906 1.148438 -5.179688 M 1.699219 -0.460938 L 2.273438 -0.460938 L 2.1875 0 L 0.265625 0 L 0.960938 -3.578125 L 0.386719 -3.578125 L 0.476562 -4.035156 L 2.390625 -4.035156 Z"/></g><g id="glyph-0-3"><path d="M 0.4375 0 L 1.132812 -3.578125 L 0.558594 -3.578125 L 0.644531 -4.035156 L 2.5625 -4.035156 L 2.453125 -3.46875 C 2.664062 -3.707031 2.882812 -3.882812 3.109375 -3.988281 C 3.339844 -4.09375 3.609375 -4.148438 3.925781 -4.148438 C 4.378906 -4.148438 4.695312 -4.011719 4.875 -3.746094 C 4.992188 -3.574219 5.050781 -3.351562 5.050781 -3.078125 C 5.050781 -2.925781 5.03125 -2.753906 4.992188 -2.566406 L 4.582031 -0.460938 L 5.160156 -0.460938 L 5.074219 0 L 3.152344 0 L 3.65625 -2.605469 C 3.691406 -2.78125 3.710938 -2.933594 3.710938 -3.054688 C 3.710938 -3.164062 3.695312 -3.253906 3.664062 -3.320312 C 3.605469 -3.449219 3.464844 -3.515625 3.25 -3.515625 C 2.980469 -3.515625 2.761719 -3.417969 2.59375 -3.21875 C 2.429688 -3.019531 2.304688 -2.703125 2.222656 -2.269531 L 1.78125 0 Z"/></g><g id="glyph-0-4"><path d="M 3.265625 -3.160156 C 3.265625 -3.53125 3.109375 -3.71875 2.796875 -3.71875 C 2.554688 -3.71875 2.363281 -3.605469 2.222656 -3.378906 C 2.078125 -3.152344 1.945312 -2.683594 1.816406 -1.972656 C 1.816406 -1.972656 1.84375 -1.972656 1.898438 -1.972656 C 2.671875 -1.972656 3.121094 -2.277344 3.238281 -2.894531 C 3.257812 -2.988281 3.265625 -3.078125 3.265625 -3.160156 M 1.722656 -1.519531 C 1.707031 -1.433594 1.703125 -1.300781 1.703125 -1.121094 C 1.703125 -0.585938 1.964844 -0.320312 2.484375 -0.320312 C 2.773438 -0.320312 3.023438 -0.394531 3.234375 -0.550781 C 3.445312 -0.703125 3.605469 -0.929688 3.710938 -1.222656 L 4.339844 -1.222656 C 4.144531 -0.765625 3.863281 -0.429688 3.496094 -0.210938 C 3.128906 0.00390625 2.65625 0.109375 2.074219 0.109375 C 1.375 0.109375 0.875 -0.0742188 0.574219 -0.441406 C 0.363281 -0.699219 0.257812 -1.03125 0.257812 -1.4375 C 0.257812 -1.613281 0.277344 -1.804688 0.320312 -2.007812 C 0.449219 -2.683594 0.742188 -3.210938 1.195312 -3.585938 C 1.652344 -3.960938 2.214844 -4.148438 2.882812 -4.148438 C 3.367188 -4.148438 3.773438 -4.050781 4.109375 -3.863281 C 4.445312 -3.675781 4.613281 -3.410156 4.613281 -3.070312 C 4.613281 -3 4.605469 -2.929688 4.589844 -2.855469 C 4.433594 -2.035156 3.476562 -1.589844 1.722656 -1.519531 Z"/></g><g id="glyph-0-5"><path d="M 3.195312 -3.328125 C 3.1875 -3.480469 3.109375 -3.554688 2.964844 -3.554688 C 2.625 -3.554688 2.292969 -3.351562 1.960938 -2.945312 C 1.804688 -2.757812 1.667969 -2.351562 1.546875 -1.726562 C 1.453125 -1.257812 1.441406 -0.933594 1.507812 -0.753906 C 1.574219 -0.574219 1.726562 -0.480469 1.96875 -0.480469 C 2.203125 -0.480469 2.394531 -0.585938 2.542969 -0.796875 C 2.691406 -1.007812 2.808594 -1.347656 2.902344 -1.820312 L 3.195312 -3.328125 M 4.484375 -3.914062 L 3.820312 -0.460938 L 4.324219 -0.46875 L 4.234375 0 L 2.546875 0 L 2.648438 -0.511719 C 2.367188 -0.0976562 1.980469 0.109375 1.488281 0.109375 C 1 0.109375 0.648438 -0.0507812 0.429688 -0.375 C 0.210938 -0.695312 0.160156 -1.140625 0.269531 -1.703125 C 0.378906 -2.265625 0.675781 -2.792969 1.160156 -3.28125 C 1.738281 -3.859375 2.410156 -4.148438 3.179688 -4.148438 C 3.9375 -4.148438 4.375 -4.070312 4.484375 -3.914062 Z"/></g><g id="glyph-0-6"><path d="M 4.570312 -4.082031 L 4.332031 -2.878906 L 3.902344 -2.878906 C 3.910156 -2.933594 3.914062 -2.980469 3.914062 -3.027344 C 3.914062 -3.167969 3.886719 -3.277344 3.824219 -3.355469 C 3.742188 -3.464844 3.605469 -3.515625 3.414062 -3.515625 C 3.121094 -3.515625 2.863281 -3.386719 2.644531 -3.128906 C 2.421875 -2.871094 2.269531 -2.511719 2.179688 -2.054688 L 1.78125 0 L 0.4375 0 L 1.132812 -3.578125 L 0.515625 -3.578125 L 0.605469 -4.035156 L 2.5625 -4.035156 L 2.425781 -3.320312 C 2.613281 -3.601562 2.824219 -3.808594 3.070312 -3.945312 C 3.3125 -4.078125 3.589844 -4.148438 3.902344 -4.148438 C 3.980469 -4.148438 4.078125 -4.140625 4.1875 -4.128906 C 4.296875 -4.117188 4.425781 -4.101562 4.570312 -4.082031 Z"/></g><g id="glyph-0-8"><path d="M 0.210938 -1.246094 L 0.640625 -1.246094 C 0.640625 -1.207031 0.636719 -1.171875 0.636719 -1.136719 C 0.636719 -0.886719 0.710938 -0.6875 0.863281 -0.542969 C 1.011719 -0.394531 1.238281 -0.320312 1.539062 -0.320312 C 2.128906 -0.320312 2.457031 -0.503906 2.527344 -0.871094 C 2.539062 -0.917969 2.542969 -0.976562 2.542969 -1.046875 C 2.542969 -1.117188 2.511719 -1.1875 2.449219 -1.265625 C 2.382812 -1.339844 2.222656 -1.410156 1.972656 -1.476562 L 1.441406 -1.617188 C 1.046875 -1.722656 0.785156 -1.855469 0.65625 -2.019531 C 0.53125 -2.183594 0.46875 -2.367188 0.46875 -2.570312 C 0.46875 -2.65625 0.476562 -2.75 0.492188 -2.847656 C 0.578125 -3.285156 0.796875 -3.613281 1.140625 -3.824219 C 1.488281 -4.039062 1.933594 -4.148438 2.488281 -4.148438 C 3.039062 -4.148438 3.617188 -4.066406 4.21875 -3.902344 L 4.019531 -2.886719 L 3.589844 -2.886719 C 3.597656 -2.933594 3.601562 -2.980469 3.601562 -3.023438 C 3.601562 -3.484375 3.3125 -3.71875 2.742188 -3.71875 C 2.167969 -3.71875 1.847656 -3.546875 1.78125 -3.207031 C 1.773438 -3.164062 1.769531 -3.117188 1.769531 -3.058594 C 1.769531 -2.890625 1.925781 -2.769531 2.238281 -2.683594 L 2.761719 -2.542969 C 3.265625 -2.410156 3.585938 -2.257812 3.726562 -2.089844 C 3.863281 -1.921875 3.933594 -1.730469 3.933594 -1.511719 C 3.933594 -1.421875 3.925781 -1.328125 3.902344 -1.222656 C 3.816406 -0.765625 3.585938 -0.429688 3.21875 -0.214844 C 2.851562 0 2.328125 0.109375 1.640625 0.109375 C 1.140625 0.109375 0.59375 0.0351562 -0.00390625 -0.117188 Z"/></g><g id="glyph-0-9"><path d="M 2.285156 -2.21875 L 2.207031 -1.820312 C 2.160156 -1.566406 2.132812 -1.351562 2.132812 -1.171875 C 2.132812 -1.023438 2.152344 -0.894531 2.191406 -0.796875 C 2.269531 -0.585938 2.441406 -0.480469 2.710938 -0.480469 C 2.988281 -0.480469 3.203125 -0.59375 3.359375 -0.816406 C 3.515625 -1.039062 3.648438 -1.441406 3.761719 -2.019531 C 3.832031 -2.378906 3.867188 -2.667969 3.867188 -2.890625 C 3.867188 -3.027344 3.851562 -3.136719 3.828125 -3.21875 C 3.757812 -3.441406 3.582031 -3.554688 3.308594 -3.554688 C 3.039062 -3.554688 2.824219 -3.449219 2.664062 -3.238281 C 2.503906 -3.027344 2.378906 -2.6875 2.285156 -2.21875 M 1.203125 -3.578125 L 0.625 -3.578125 L 0.71875 -4.035156 L 2.640625 -4.035156 L 2.539062 -3.523438 C 2.695312 -3.734375 2.878906 -3.890625 3.089844 -3.992188 C 3.304688 -4.09375 3.550781 -4.148438 3.835938 -4.148438 C 4.410156 -4.148438 4.824219 -3.957031 5.082031 -3.578125 C 5.253906 -3.328125 5.339844 -3.011719 5.339844 -2.636719 C 5.339844 -2.445312 5.316406 -2.242188 5.273438 -2.019531 C 5.144531 -1.359375 4.878906 -0.839844 4.476562 -0.460938 C 4.070312 -0.078125 3.582031 0.109375 3.007812 0.109375 C 2.722656 0.109375 2.496094 0.0585938 2.320312 -0.0429688 C 2.148438 -0.144531 2.027344 -0.300781 1.957031 -0.511719 L 1.539062 1.617188 L 0.195312 1.617188 Z"/></g><g id="glyph-0-10"><path d="M 4.976562 -3.375 C 5.210938 -3.644531 5.453125 -3.839844 5.695312 -3.960938 C 5.9375 -4.085938 6.203125 -4.148438 6.492188 -4.148438 C 6.957031 -4.148438 7.277344 -4.015625 7.457031 -3.753906 C 7.570312 -3.585938 7.625 -3.367188 7.625 -3.09375 C 7.625 -2.933594 7.605469 -2.757812 7.570312 -2.566406 L 7.160156 -0.460938 L 7.734375 -0.460938 L 7.648438 0 L 5.726562 0 L 6.1875 -2.367188 C 6.25 -2.695312 6.28125 -2.945312 6.28125 -3.117188 C 6.28125 -3.207031 6.273438 -3.273438 6.253906 -3.320312 C 6.203125 -3.449219 6.074219 -3.515625 5.863281 -3.515625 C 5.625 -3.515625 5.421875 -3.425781 5.253906 -3.242188 C 5.089844 -3.058594 4.972656 -2.796875 4.90625 -2.457031 L 4.429688 0 L 3.082031 0 L 3.542969 -2.367188 C 3.605469 -2.691406 3.636719 -2.941406 3.636719 -3.109375 C 3.636719 -3.203125 3.628906 -3.273438 3.613281 -3.320312 C 3.558594 -3.449219 3.429688 -3.515625 3.21875 -3.515625 C 2.980469 -3.515625 2.777344 -3.425781 2.609375 -3.242188 C 2.441406 -3.058594 2.324219 -2.796875 2.257812 -2.457031 L 1.78125 0 L 0.4375 0 L 1.132812 -3.578125 L 0.558594 -3.578125 L 0.644531 -4.035156 L 2.5625 -4.035156 L 2.453125 -3.46875 C 2.65625 -3.703125 2.867188 -3.875 3.09375 -3.984375 C 3.316406 -4.09375 3.570312 -4.148438 3.847656 -4.148438 C 4.175781 -4.148438 4.429688 -4.085938 4.613281 -3.957031 C 4.792969 -3.832031 4.914062 -3.640625 4.976562 -3.375 Z"/></g><g id="glyph-0-11"><path d="M 1.699219 -0.460938 L 2.273438 -0.460938 L 2.1875 0 L 0.265625 0 L 1.324219 -5.453125 L 0.75 -5.453125 L 0.839844 -5.910156 L 2.757812 -5.910156 Z"/></g><g id="glyph-0-12"><path d="M 2.265625 -0.320312 C 2.550781 -0.320312 2.773438 -0.441406 2.933594 -0.683594 C 3.097656 -0.925781 3.242188 -1.371094 3.367188 -2.019531 C 3.453125 -2.441406 3.492188 -2.78125 3.492188 -3.03125 C 3.492188 -3.160156 3.480469 -3.269531 3.457031 -3.355469 C 3.390625 -3.597656 3.214844 -3.71875 2.929688 -3.71875 C 2.640625 -3.71875 2.417969 -3.59375 2.25 -3.351562 C 2.085938 -3.105469 1.941406 -2.664062 1.820312 -2.019531 C 1.738281 -1.605469 1.699219 -1.273438 1.699219 -1.023438 C 1.699219 -0.886719 1.710938 -0.773438 1.734375 -0.6875 C 1.804688 -0.441406 1.980469 -0.320312 2.265625 -0.320312 M 3.964844 -0.457031 C 3.488281 -0.078125 2.894531 0.109375 2.183594 0.109375 C 1.472656 0.109375 0.953125 -0.078125 0.621094 -0.457031 C 0.386719 -0.730469 0.265625 -1.074219 0.265625 -1.496094 C 0.265625 -1.660156 0.285156 -1.832031 0.320312 -2.019531 C 0.449219 -2.6875 0.75 -3.207031 1.226562 -3.582031 C 1.707031 -3.957031 2.300781 -4.148438 3.011719 -4.148438 C 3.726562 -4.148438 4.246094 -3.960938 4.574219 -3.585938 C 4.8125 -3.3125 4.933594 -2.96875 4.933594 -2.546875 C 4.933594 -2.382812 4.914062 -2.207031 4.875 -2.019531 C 4.746094 -1.355469 4.445312 -0.835938 3.964844 -0.457031 Z"/></g><g id="glyph-0-13"><path d="M 1.253906 -5.453125 L 0.675781 -5.453125 L 0.761719 -5.910156 L 2.683594 -5.910156 L 2.222656 -3.523438 C 2.375 -3.734375 2.558594 -3.890625 2.773438 -3.992188 C 2.984375 -4.09375 3.234375 -4.148438 3.515625 -4.148438 C 4.089844 -4.148438 4.507812 -3.957031 4.761719 -3.578125 C 4.933594 -3.328125 5.019531 -3.011719 5.019531 -2.636719 C 5.019531 -2.445312 5 -2.242188 4.957031 -2.019531 C 4.828125 -1.359375 4.558594 -0.839844 4.15625 -0.460938 C 3.753906 -0.078125 3.261719 0.109375 2.6875 0.109375 C 2.40625 0.109375 2.175781 0.0585938 2.003906 -0.0429688 C 1.832031 -0.144531 1.710938 -0.300781 1.636719 -0.511719 L 1.539062 0 L 0.195312 0 L 1.253906 -5.453125 M 1.890625 -1.820312 C 1.839844 -1.566406 1.816406 -1.351562 1.816406 -1.171875 C 1.816406 -1.023438 1.835938 -0.894531 1.871094 -0.796875 C 1.949219 -0.585938 2.125 -0.480469 2.390625 -0.480469 C 2.667969 -0.480469 2.882812 -0.59375 3.039062 -0.816406 C 3.195312 -1.039062 3.332031 -1.441406 3.445312 -2.019531 C 3.515625 -2.378906 3.550781 -2.667969 3.550781 -2.890625 C 3.550781 -3.027344 3.535156 -3.136719 3.507812 -3.21875 C 3.441406 -3.441406 3.269531 -3.554688 2.992188 -3.554688 C 2.722656 -3.554688 2.507812 -3.449219 2.347656 -3.238281 C 2.183594 -3.027344 2.058594 -2.6875 1.96875 -2.21875 Z"/></g><g id="glyph-0-14"><path d="M 5.21875 -4.035156 L 4.523438 -0.460938 L 5.097656 -0.460938 L 5.007812 0 L 3.085938 0 L 3.199219 -0.570312 C 2.988281 -0.328125 2.773438 -0.15625 2.542969 -0.0507812 C 2.316406 0.0585938 2.042969 0.109375 1.726562 0.109375 C 1.273438 0.109375 0.957031 -0.0234375 0.777344 -0.289062 C 0.660156 -0.460938 0.605469 -0.683594 0.605469 -0.957031 C 0.605469 -1.113281 0.621094 -1.28125 0.660156 -1.46875 L 1.070312 -3.578125 L 0.492188 -3.578125 L 0.582031 -4.035156 L 2.503906 -4.035156 L 2.042969 -1.679688 C 1.980469 -1.363281 1.953125 -1.117188 1.953125 -0.949219 C 1.953125 -0.847656 1.964844 -0.773438 1.984375 -0.722656 C 2.042969 -0.585938 2.179688 -0.519531 2.402344 -0.519531 C 2.675781 -0.519531 2.890625 -0.621094 3.058594 -0.820312 C 3.222656 -1.019531 3.34375 -1.339844 3.429688 -1.773438 L 3.871094 -4.035156 Z"/></g><g id="glyph-0-15"><path d="M 0.964844 -3.578125 L 0.378906 -3.578125 L 0.46875 -4.035156 L 1.050781 -4.035156 L 1.296875 -5.289062 L 2.640625 -5.289062 L 2.394531 -4.035156 L 3.515625 -4.035156 L 3.429688 -3.578125 L 2.308594 -3.578125 L 1.828125 -1.105469 C 1.785156 -0.878906 1.761719 -0.710938 1.761719 -0.597656 C 1.761719 -0.527344 1.769531 -0.476562 1.78125 -0.449219 C 1.820312 -0.363281 1.914062 -0.320312 2.0625 -0.320312 C 2.222656 -0.320312 2.355469 -0.375 2.453125 -0.480469 C 2.550781 -0.589844 2.625 -0.757812 2.675781 -0.988281 L 3.242188 -0.988281 C 3.140625 -0.582031 2.976562 -0.296875 2.746094 -0.136719 C 2.515625 0.0273438 2.15625 0.109375 1.671875 0.109375 C 1.117188 0.109375 0.757812 0.0234375 0.59375 -0.152344 C 0.484375 -0.261719 0.433594 -0.433594 0.433594 -0.667969 C 0.433594 -0.796875 0.449219 -0.941406 0.480469 -1.105469 Z"/></g><g id="glyph-1-0"><path d="M 1.886719 1.035156 L 0.808594 -3.578125 L 0.371094 -3.578125 L 0.464844 -4.035156 L 2.113281 -4.035156 L 3.015625 -0.132812 C 3.304688 -0.554688 3.550781 -1 3.746094 -1.476562 C 3.9375 -1.949219 4.132812 -2.648438 4.324219 -3.570312 L 3.785156 -3.574219 L 3.875 -4.03125 L 4.964844 -4.035156 C 4.898438 -3.710938 4.824219 -3.34375 4.730469 -2.925781 C 4.507812 -1.894531 4.253906 -1.144531 3.972656 -0.667969 C 3.230469 0.570312 2.5625 1.304688 1.96875 1.535156 C 1.628906 1.664062 1.21875 1.726562 0.734375 1.726562 C 0.496094 1.726562 0.203125 1.671875 -0.144531 1.566406 L 0.0195312 0.722656 L 0.449219 0.726562 C 0.4375 0.785156 0.433594 0.839844 0.433594 0.890625 C 0.433594 1.066406 0.492188 1.183594 0.613281 1.238281 C 0.664062 1.261719 0.746094 1.285156 0.855469 1.296875 C 0.914062 1.304688 0.976562 1.308594 1.035156 1.308594 C 1.316406 1.308594 1.601562 1.21875 1.886719 1.035156 Z"/></g><g id="glyph-1-1"><path d="M 2.265625 -0.320312 C 2.550781 -0.320312 2.773438 -0.441406 2.933594 -0.683594 C 3.097656 -0.925781 3.242188 -1.371094 3.367188 -2.019531 C 3.453125 -2.441406 3.492188 -2.78125 3.492188 -3.03125 C 3.492188 -3.160156 3.480469 -3.269531 3.457031 -3.355469 C 3.390625 -3.597656 3.214844 -3.71875 2.929688 -3.71875 C 2.640625 -3.71875 2.417969 -3.59375 2.25 -3.351562 C 2.085938 -3.105469 1.941406 -2.664062 1.820312 -2.019531 C 1.738281 -1.605469 1.699219 -1.273438 1.699219 -1.023438 C 1.699219 -0.886719 1.710938 -0.773438 1.734375 -0.6875 C 1.804688 -0.441406 1.980469 -0.320312 2.265625 -0.320312 M 3.964844 -0.457031 C 3.488281 -0.078125 2.894531 0.109375 2.183594 0.109375 C 1.472656 0.109375 0.953125 -0.078125 0.621094 -0.457031 C 0.386719 -0.730469 0.265625 -1.074219 0.265625 -1.496094 C 0.265625 -1.660156 0.285156 -1.832031 0.320312 -2.019531 C 0.449219 -2.6875 0.75 -3.207031 1.226562 -3.582031 C 1.707031 -3.957031 2.300781 -4.148438 3.011719 -4.148438 C 3.726562 -4.148438 4.246094 -3.960938 4.574219 -3.585938 C 4.8125 -3.3125 4.933594 -2.96875 4.933594 -2.546875 C 4.933594 -2.382812 4.914062 -2.207031 4.875 -2.019531 C 4.746094 -1.355469 4.445312 -0.835938 3.964844 -0.457031 Z"/></g><g id="glyph-1-2"><path d="M 5.21875 -4.035156 L 4.523438 -0.460938 L 5.097656 -0.460938 L 5.007812 0 L 3.085938 0 L 3.199219 -0.570312 C 2.988281 -0.328125 2.773438 -0.15625 2.542969 -0.0507812 C 2.316406 0.0585938 2.042969 0.109375 1.726562 0.109375 C 1.273438 0.109375 0.957031 -0.0234375 0.777344 -0.289062 C 0.660156 -0.460938 0.605469 -0.683594 0.605469 -0.957031 C 0.605469 -1.113281 0.621094 -1.28125 0.660156 -1.46875 L 1.070312 -3.578125 L 0.492188 -3.578125 L 0.582031 -4.035156 L 2.503906 -4.035156 L 2.042969 -1.679688 C 1.980469 -1.363281 1.953125 -1.117188 1.953125 -0.949219 C 1.953125 -0.847656 1.964844 -0.773438 1.984375 -0.722656 C 2.042969 -0.585938 2.179688 -0.519531 2.402344 -0.519531 C 2.675781 -0.519531 2.890625 -0.621094 3.058594 -0.820312 C 3.222656 -1.019531 3.34375 -1.339844 3.429688 -1.773438 L 3.871094 -4.035156 Z"/></g><g id="glyph-1-4"><path d="M 4.238281 -1.261719 C 4.054688 -0.800781 3.789062 -0.457031 3.449219 -0.230469 C 3.105469 -0.00390625 2.679688 0.109375 2.167969 0.109375 C 1.449219 0.109375 0.929688 -0.0742188 0.609375 -0.449219 C 0.378906 -0.710938 0.261719 -1.054688 0.261719 -1.472656 C 0.261719 -1.644531 0.28125 -1.824219 0.320312 -2.019531 C 0.449219 -2.6875 0.746094 -3.210938 1.207031 -3.585938 C 1.671875 -3.960938 2.25 -4.148438 2.941406 -4.148438 C 3.222656 -4.148438 3.503906 -4.121094 3.777344 -4.066406 C 4.054688 -4.015625 4.332031 -3.933594 4.605469 -3.828125 L 4.386719 -2.707031 L 3.960938 -2.707031 C 3.964844 -2.765625 3.96875 -2.820312 3.96875 -2.875 C 3.96875 -3.132812 3.914062 -3.332031 3.808594 -3.472656 C 3.683594 -3.636719 3.476562 -3.71875 3.1875 -3.71875 C 2.8125 -3.71875 2.519531 -3.589844 2.3125 -3.339844 C 2.105469 -3.085938 1.941406 -2.644531 1.820312 -2.019531 C 1.753906 -1.695312 1.722656 -1.417969 1.722656 -1.191406 C 1.722656 -0.996094 1.75 -0.835938 1.796875 -0.714844 C 1.898438 -0.449219 2.125 -0.320312 2.476562 -0.320312 C 2.746094 -0.320312 2.980469 -0.398438 3.175781 -0.5625 C 3.371094 -0.722656 3.515625 -0.957031 3.609375 -1.261719 Z"/></g><g id="glyph-1-5"><path d="M 3.195312 -3.328125 C 3.1875 -3.480469 3.109375 -3.554688 2.964844 -3.554688 C 2.625 -3.554688 2.292969 -3.351562 1.960938 -2.945312 C 1.804688 -2.757812 1.667969 -2.351562 1.546875 -1.726562 C 1.453125 -1.257812 1.441406 -0.933594 1.507812 -0.753906 C 1.574219 -0.574219 1.726562 -0.480469 1.96875 -0.480469 C 2.203125 -0.480469 2.394531 -0.585938 2.542969 -0.796875 C 2.691406 -1.007812 2.808594 -1.347656 2.902344 -1.820312 L 3.195312 -3.328125 M 4.484375 -3.914062 L 3.820312 -0.460938 L 4.324219 -0.46875 L 4.234375 0 L 2.546875 0 L 2.648438 -0.511719 C 2.367188 -0.0976562 1.980469 0.109375 1.488281 0.109375 C 1 0.109375 0.648438 -0.0507812 0.429688 -0.375 C 0.210938 -0.695312 0.160156 -1.140625 0.269531 -1.703125 C 0.378906 -2.265625 0.675781 -2.792969 1.160156 -3.28125 C 1.738281 -3.859375 2.410156 -4.148438 3.179688 -4.148438 C 3.9375 -4.148438 4.375 -4.070312 4.484375 -3.914062 Z"/></g><g id="glyph-1-6"><path d="M 0.4375 0 L 1.132812 -3.578125 L 0.558594 -3.578125 L 0.644531 -4.035156 L 2.5625 -4.035156 L 2.453125 -3.46875 C 2.664062 -3.707031 2.882812 -3.882812 3.109375 -3.988281 C 3.339844 -4.09375 3.609375 -4.148438 3.925781 -4.148438 C 4.378906 -4.148438 4.695312 -4.011719 4.875 -3.746094 C 4.992188 -3.574219 5.050781 -3.351562 5.050781 -3.078125 C 5.050781 -2.925781 5.03125 -2.753906 4.992188 -2.566406 L 4.582031 -0.460938 L 5.160156 -0.460938 L 5.074219 0 L 3.152344 0 L 3.65625 -2.605469 C 3.691406 -2.78125 3.710938 -2.933594 3.710938 -3.054688 C 3.710938 -3.164062 3.695312 -3.253906 3.664062 -3.320312 C 3.605469 -3.449219 3.464844 -3.515625 3.25 -3.515625 C 2.980469 -3.515625 2.761719 -3.417969 2.59375 -3.21875 C 2.429688 -3.019531 2.304688 -2.703125 2.222656 -2.269531 L 1.78125 0 Z"/></g><g id="glyph-1-7"><path d="M 4.976562 -3.375 C 5.210938 -3.644531 5.453125 -3.839844 5.695312 -3.960938 C 5.9375 -4.085938 6.203125 -4.148438 6.492188 -4.148438 C 6.957031 -4.148438 7.277344 -4.015625 7.457031 -3.753906 C 7.570312 -3.585938 7.625 -3.367188 7.625 -3.09375 C 7.625 -2.933594 7.605469 -2.757812 7.570312 -2.566406 L 7.160156 -0.460938 L 7.734375 -0.460938 L 7.648438 0 L 5.726562 0 L 6.1875 -2.367188 C 6.25 -2.695312 6.28125 -2.945312 6.28125 -3.117188 C 6.28125 -3.207031 6.273438 -3.273438 6.253906 -3.320312 C 6.203125 -3.449219 6.074219 -3.515625 5.863281 -3.515625 C 5.625 -3.515625 5.421875 -3.425781 5.253906 -3.242188 C 5.089844 -3.058594 4.972656 -2.796875 4.90625 -2.457031 L 4.429688 0 L 3.082031 0 L 3.542969 -2.367188 C 3.605469 -2.691406 3.636719 -2.941406 3.636719 -3.109375 C 3.636719 -3.203125 3.628906 -3.273438 3.613281 -3.320312 C 3.558594 -3.449219 3.429688 -3.515625 3.21875 -3.515625 C 2.980469 -3.515625 2.777344 -3.425781 2.609375 -3.242188 C 2.441406 -3.058594 2.324219 -2.796875 2.257812 -2.457031 L 1.78125 0 L 0.4375 0 L 1.132812 -3.578125 L 0.558594 -3.578125 L 0.644531 -4.035156 L 2.5625 -4.035156 L 2.453125 -3.46875 C 2.65625 -3.703125 2.867188 -3.875 3.09375 -3.984375 C 3.316406 -4.09375 3.570312 -4.148438 3.847656 -4.148438 C 4.175781 -4.148438 4.429688 -4.085938 4.613281 -3.957031 C 4.792969 -3.832031 4.914062 -3.640625 4.976562 -3.375 Z"/></g><g id="glyph-1-8"><path d="M 1.609375 0 L 0.265625 0 L 1.324219 -5.453125 L 0.75 -5.453125 L 0.839844 -5.910156 L 2.757812 -5.910156 L 2.019531 -2.113281 L 3.933594 -3.578125 L 3.453125 -3.578125 L 3.539062 -4.035156 L 4.632812 -4.035156 L 4.546875 -3.578125 L 3.324219 -2.644531 L 4.597656 -0.460938 L 5.035156 -0.460938 L 4.949219 0 L 3.464844 0 L 2.355469 -1.898438 L 1.914062 -1.566406 Z"/></g><g id="glyph-1-9"><path d="M 3.265625 -3.160156 C 3.265625 -3.53125 3.109375 -3.71875 2.796875 -3.71875 C 2.554688 -3.71875 2.363281 -3.605469 2.222656 -3.378906 C 2.078125 -3.152344 1.945312 -2.683594 1.816406 -1.972656 C 1.816406 -1.972656 1.84375 -1.972656 1.898438 -1.972656 C 2.671875 -1.972656 3.121094 -2.277344 3.238281 -2.894531 C 3.257812 -2.988281 3.265625 -3.078125 3.265625 -3.160156 M 1.722656 -1.519531 C 1.707031 -1.433594 1.703125 -1.300781 1.703125 -1.121094 C 1.703125 -0.585938 1.964844 -0.320312 2.484375 -0.320312 C 2.773438 -0.320312 3.023438 -0.394531 3.234375 -0.550781 C 3.445312 -0.703125 3.605469 -0.929688 3.710938 -1.222656 L 4.339844 -1.222656 C 4.144531 -0.765625 3.863281 -0.429688 3.496094 -0.210938 C 3.128906 0.00390625 2.65625 0.109375 2.074219 0.109375 C 1.375 0.109375 0.875 -0.0742188 0.574219 -0.441406 C 0.363281 -0.699219 0.257812 -1.03125 0.257812 -1.4375 C 0.257812 -1.613281 0.277344 -1.804688 0.320312 -2.007812 C 0.449219 -2.683594 0.742188 -3.210938 1.195312 -3.585938 C 1.652344 -3.960938 2.214844 -4.148438 2.882812 -4.148438 C 3.367188 -4.148438 3.773438 -4.050781 4.109375 -3.863281 C 4.445312 -3.675781 4.613281 -3.410156 4.613281 -3.070312 C 4.613281 -3 4.605469 -2.929688 4.589844 -2.855469 C 4.433594 -2.035156 3.476562 -1.589844 1.722656 -1.519531 Z"/></g><g id="glyph-1-10"><path d="M -0.367188 1.050781 C -0.164062 1.050781 -0.00390625 0.980469 0.113281 0.832031 C 0.234375 0.6875 0.324219 0.453125 0.386719 0.125 L 1.109375 -3.578125 L 0.507812 -3.578125 L 0.597656 -4.035156 L 1.195312 -4.035156 L 1.296875 -4.542969 C 1.382812 -4.988281 1.589844 -5.328125 1.921875 -5.5625 C 2.253906 -5.792969 2.695312 -5.910156 3.25 -5.910156 C 3.464844 -5.910156 3.671875 -5.898438 3.875 -5.871094 C 4.074219 -5.847656 4.269531 -5.8125 4.457031 -5.765625 L 4.289062 -4.898438 L 3.863281 -4.898438 C 3.867188 -4.9375 3.871094 -4.972656 3.871094 -5.003906 C 3.871094 -5.148438 3.839844 -5.261719 3.773438 -5.339844 C 3.699219 -5.433594 3.574219 -5.484375 3.398438 -5.484375 C 3.195312 -5.484375 3.035156 -5.410156 2.917969 -5.265625 C 2.796875 -5.121094 2.707031 -4.882812 2.644531 -4.558594 L 2.539062 -4.035156 L 3.554688 -4.035156 L 3.46875 -3.578125 L 2.453125 -3.578125 L 1.734375 0.109375 C 1.632812 0.640625 1.421875 0.980469 1.109375 1.132812 C 0.621094 1.363281 0.0976562 1.476562 -0.457031 1.476562 C -0.429688 1.335938 -0.398438 1.195312 -0.367188 1.050781 Z"/></g><g id="glyph-1-11"><path d="M 4.570312 -4.082031 L 4.332031 -2.878906 L 3.902344 -2.878906 C 3.910156 -2.933594 3.914062 -2.980469 3.914062 -3.027344 C 3.914062 -3.167969 3.886719 -3.277344 3.824219 -3.355469 C 3.742188 -3.464844 3.605469 -3.515625 3.414062 -3.515625 C 3.121094 -3.515625 2.863281 -3.386719 2.644531 -3.128906 C 2.421875 -2.871094 2.269531 -2.511719 2.179688 -2.054688 L 1.78125 0 L 0.4375 0 L 1.132812 -3.578125 L 0.515625 -3.578125 L 0.605469 -4.035156 L 2.5625 -4.035156 L 2.425781 -3.320312 C 2.613281 -3.601562 2.824219 -3.808594 3.070312 -3.945312 C 3.3125 -4.078125 3.589844 -4.148438 3.902344 -4.148438 C 3.980469 -4.148438 4.078125 -4.140625 4.1875 -4.128906 C 4.296875 -4.117188 4.425781 -4.101562 4.570312 -4.082031 Z"/></g><g id="glyph-1-12"><path d="M 0.964844 -3.578125 L 0.378906 -3.578125 L 0.46875 -4.035156 L 1.050781 -4.035156 L 1.296875 -5.289062 L 2.640625 -5.289062 L 2.394531 -4.035156 L 3.515625 -4.035156 L 3.429688 -3.578125 L 2.308594 -3.578125 L 1.828125 -1.105469 C 1.785156 -0.878906 1.761719 -0.710938 1.761719 -0.597656 C 1.761719 -0.527344 1.769531 -0.476562 1.78125 -0.449219 C 1.820312 -0.363281 1.914062 -0.320312 2.0625 -0.320312 C 2.222656 -0.320312 2.355469 -0.375 2.453125 -0.480469 C 2.550781 -0.589844 2.625 -0.757812 2.675781 -0.988281 L 3.242188 -0.988281 C 3.140625 -0.582031 2.976562 -0.296875 2.746094 -0.136719 C 2.515625 0.0273438 2.15625 0.109375 1.671875 0.109375 C 1.117188 0.109375 0.757812 0.0234375 0.59375 -0.152344 C 0.484375 -0.261719 0.433594 -0.433594 0.433594 -0.667969 C 0.433594 -0.796875 0.449219 -0.941406 0.480469 -1.105469 Z"/></g><g id="glyph-1-13"><path d="M 0.265625 0 L 1.324219 -5.453125 L 0.726562 -5.453125 L 0.8125 -5.910156 L 2.757812 -5.910156 L 2.28125 -3.46875 C 2.492188 -3.707031 2.710938 -3.882812 2.9375 -3.988281 C 3.167969 -4.09375 3.4375 -4.148438 3.753906 -4.148438 C 4.207031 -4.148438 4.527344 -4.011719 4.707031 -3.746094 C 4.820312 -3.574219 4.875 -3.351562 4.875 -3.078125 C 4.875 -2.925781 4.859375 -2.753906 4.824219 -2.566406 L 4.414062 -0.460938 L 4.988281 -0.460938 L 4.902344 0 L 2.980469 0 L 3.484375 -2.605469 C 3.523438 -2.78125 3.539062 -2.933594 3.539062 -3.054688 C 3.539062 -3.164062 3.523438 -3.253906 3.492188 -3.320312 C 3.433594 -3.449219 3.296875 -3.515625 3.078125 -3.515625 C 2.808594 -3.515625 2.589844 -3.417969 2.425781 -3.21875 C 2.257812 -3.019531 2.132812 -2.703125 2.050781 -2.269531 L 1.609375 0 Z"/></g><g id="glyph-1-14"><path d="M 3.75 -3.328125 C 3.734375 -3.480469 3.648438 -3.554688 3.484375 -3.554688 C 3.023438 -3.554688 2.652344 -3.351562 2.363281 -2.945312 C 2.183594 -2.691406 2.039062 -2.285156 1.929688 -1.726562 C 1.839844 -1.257812 1.832031 -0.933594 1.910156 -0.753906 C 1.984375 -0.574219 2.160156 -0.480469 2.4375 -0.480469 C 2.703125 -0.480469 2.914062 -0.585938 3.074219 -0.796875 C 3.238281 -1.007812 3.363281 -1.347656 3.457031 -1.820312 L 3.75 -3.328125 M 5.183594 -3.78125 L 4.457031 -0.0546875 C 4.335938 0.570312 4.050781 1.007812 3.597656 1.261719 C 3.042969 1.570312 2.445312 1.726562 1.796875 1.726562 C 1.527344 1.726562 1.257812 1.707031 0.992188 1.664062 C 0.722656 1.625 0.449219 1.5625 0.175781 1.476562 L 0.363281 0.511719 L 0.792969 0.511719 C 0.792969 0.535156 0.789062 0.558594 0.789062 0.578125 C 0.789062 0.808594 0.859375 0.984375 1 1.105469 C 1.152344 1.234375 1.390625 1.296875 1.714844 1.296875 C 2.132812 1.296875 2.445312 1.199219 2.652344 1 C 2.863281 0.800781 3.015625 0.449219 3.113281 -0.0546875 L 3.203125 -0.511719 C 2.890625 -0.0976562 2.453125 0.109375 1.882812 0.109375 C 1.320312 0.109375 0.90625 -0.0507812 0.644531 -0.375 C 0.386719 -0.695312 0.308594 -1.140625 0.417969 -1.703125 C 0.550781 -2.390625 0.9375 -2.980469 1.578125 -3.480469 C 2.15625 -3.925781 2.863281 -4.148438 3.707031 -4.148438 C 4.386719 -4.148438 4.878906 -4.023438 5.183594 -3.78125 Z"/></g><g id="glyph-1-15"><path d="M 1.148438 -5.179688 C 1.1875 -5.386719 1.292969 -5.558594 1.460938 -5.699219 C 1.628906 -5.839844 1.816406 -5.910156 2.019531 -5.910156 C 2.21875 -5.910156 2.378906 -5.839844 2.492188 -5.695312 C 2.574219 -5.59375 2.617188 -5.472656 2.617188 -5.332031 C 2.617188 -5.285156 2.613281 -5.234375 2.601562 -5.179688 C 2.5625 -4.980469 2.460938 -4.808594 2.292969 -4.667969 C 2.125 -4.527344 1.9375 -4.457031 1.738281 -4.457031 C 1.535156 -4.457031 1.375 -4.527344 1.261719 -4.667969 C 1.175781 -4.769531 1.132812 -4.890625 1.132812 -5.03125 C 1.132812 -5.078125 1.136719 -5.128906 1.148438 -5.179688 M 1.699219 -0.460938 L 2.273438 -0.460938 L 2.1875 0 L 0.265625 0 L 0.960938 -3.578125 L 0.386719 -3.578125 L 0.476562 -4.035156 L 2.390625 -4.035156 Z"/></g><g id="glyph-1-16"><path d="M 2.421875 0 L 1.34375 0 L 0.609375 -3.578125 L 0.164062 -3.578125 L 0.25 -4.035156 L 1.894531 -4.035156 L 2.515625 -1.023438 C 2.578125 -1.023438 2.816406 -1.296875 3.222656 -1.839844 C 3.597656 -2.355469 3.863281 -2.933594 4.027344 -3.578125 L 3.585938 -3.578125 L 3.675781 -4.042969 L 4.574219 -4.035156 C 4.582031 -3.40625 4.332031 -2.667969 3.820312 -1.824219 C 3.339844 -1.023438 2.875 -0.414062 2.421875 0 Z"/></g><g id="glyph-1-17"><path d="M 0.210938 -1.246094 L 0.640625 -1.246094 C 0.640625 -1.207031 0.636719 -1.171875 0.636719 -1.136719 C 0.636719 -0.886719 0.710938 -0.6875 0.863281 -0.542969 C 1.011719 -0.394531 1.238281 -0.320312 1.539062 -0.320312 C 2.128906 -0.320312 2.457031 -0.503906 2.527344 -0.871094 C 2.539062 -0.917969 2.542969 -0.976562 2.542969 -1.046875 C 2.542969 -1.117188 2.511719 -1.1875 2.449219 -1.265625 C 2.382812 -1.339844 2.222656 -1.410156 1.972656 -1.476562 L 1.441406 -1.617188 C 1.046875 -1.722656 0.785156 -1.855469 0.65625 -2.019531 C 0.53125 -2.183594 0.46875 -2.367188 0.46875 -2.570312 C 0.46875 -2.65625 0.476562 -2.75 0.492188 -2.847656 C 0.578125 -3.285156 0.796875 -3.613281 1.140625 -3.824219 C 1.488281 -4.039062 1.933594 -4.148438 2.488281 -4.148438 C 3.039062 -4.148438 3.617188 -4.066406 4.21875 -3.902344 L 4.019531 -2.886719 L 3.589844 -2.886719 C 3.597656 -2.933594 3.601562 -2.980469 3.601562 -3.023438 C 3.601562 -3.484375 3.3125 -3.71875 2.742188 -3.71875 C 2.167969 -3.71875 1.847656 -3.546875 1.78125 -3.207031 C 1.773438 -3.164062 1.769531 -3.117188 1.769531 -3.058594 C 1.769531 -2.890625 1.925781 -2.769531 2.238281 -2.683594 L 2.761719 -2.542969 C 3.265625 -2.410156 3.585938 -2.257812 3.726562 -2.089844 C 3.863281 -1.921875 3.933594 -1.730469 3.933594 -1.511719 C 3.933594 -1.421875 3.925781 -1.328125 3.902344 -1.222656 C 3.816406 -0.765625 3.585938 -0.429688 3.21875 -0.214844 C 2.851562 0 2.328125 0.109375 1.640625 0.109375 C 1.140625 0.109375 0.59375 0.0351562 -0.00390625 -0.117188 Z"/></g><g id="glyph-1-18"><path d="M 0.628906 -0.613281 C 0.667969 -0.8125 0.773438 -0.980469 0.941406 -1.125 C 1.113281 -1.265625 1.296875 -1.335938 1.492188 -1.335938 C 1.691406 -1.335938 1.847656 -1.265625 1.964844 -1.125 C 2.078125 -0.980469 2.113281 -0.8125 2.078125 -0.613281 C 2.039062 -0.414062 1.933594 -0.246094 1.765625 -0.101562 C 1.597656 0.0390625 1.410156 0.109375 1.210938 0.109375 C 1.015625 0.109375 0.859375 0.0390625 0.746094 -0.101562 C 0.628906 -0.246094 0.59375 -0.414062 0.628906 -0.613281 Z"/></g><g id="glyph-1-19"><path d="M 2.019531 -3.957031 C 2.296875 -4.125 2.511719 -4.332031 2.667969 -4.570312 C 2.824219 -4.804688 2.933594 -5.105469 3.003906 -5.460938 L 3.046875 -5.667969 L 4.074219 -5.667969 C 3.949219 -5.140625 3.75 -4.699219 3.46875 -4.34375 C 3.1875 -3.988281 2.804688 -3.691406 2.320312 -3.445312 L 2.019531 -3.957031 M 0.253906 -3.957031 C 0.53125 -4.125 0.746094 -4.332031 0.902344 -4.570312 C 1.0625 -4.804688 1.171875 -5.105469 1.242188 -5.460938 L 1.285156 -5.667969 L 2.308594 -5.667969 C 2.183594 -5.140625 1.980469 -4.699219 1.703125 -4.34375 C 1.421875 -3.988281 1.039062 -3.691406 0.554688 -3.445312 Z"/></g></g></defs><g fill="#212529" fill-opacity="1"><use x="30" y="27.303" xlink:href="#glyph-0-0"/><use x="34" y="27.303" xlink:href="#glyph-0-1"/><use x="39" y="27.303" xlink:href="#glyph-0-2"/><use x="42" y="27.303" xlink:href="#glyph-0-3"/><use x="48" y="27.303" xlink:href="#glyph-0-4"/><use x="53" y="27.303" xlink:href="#glyph-0-5"/><use x="58" y="27.303" xlink:href="#glyph-0-6"/><use x="62" y="27.303" xlink:href="#glyph-0-7"/><use x="65" y="27.303" xlink:href="#glyph-0-8"/><use x="69" y="27.303" xlink:href="#glyph-0-9"/><use x="74" y="27.303" xlink:href="#glyph-0-5"/><use x="79" y="27.303" xlink:href="#glyph-0-3"/><use x="85" y="27.303" xlink:href="#glyph-0-7"/><use x="88" y="27.303" xlink:href="#glyph-0-10"/><use x="96" y="27.303" xlink:href="#glyph-0-4"/><use x="101" y="27.303" xlink:href="#glyph-0-5"/><use x="106" y="27.303" xlink:href="#glyph-0-3"/><use x="112" y="27.303" xlink:href="#glyph-0-8"/><use x="116" y="27.303" xlink:href="#glyph-0-7"/><use x="119" y="27.303" xlink:href="#glyph-0-5"/><use x="124" y="27.303" xlink:href="#glyph-0-11"/><use x="127" y="27.303" xlink:href="#glyph-0-11"/><use x="130" y="27.303" xlink:href="#glyph-0-7"/><use x="133" y="27.303" xlink:href="#glyph-0-9"/><use x="138" y="27.303" xlink:href="#glyph-0-12"/><use x="143" y="27.303" xlink:href="#glyph-0-8"/><use x="147" y="27.303" xlink:href="#glyph-0-8"/><use x="151" y="27.303" xlink:href="#glyph-0-2"/><use x="154" y="27.303" xlink:href="#glyph-0-13"/><use x="159" y="27.303" xlink:href="#glyph-0-11"/><use x="162" y="27.303" xlink:href="#glyph-0-4"/><use x="167" y="27.303" xlink:href="#glyph-0-7"/><use x="170" y="27.303" xlink:href="#glyph-0-6"/><use x="174" y="27.303" xlink:href="#glyph-0-4"/><use x="179" y="27.303" xlink:href="#glyph-0-8"/><use x="183" y="27.303" xlink:href="#glyph-0-14"/><use x="189" y="27.303" xlink:href="#glyph-0-11"/><use x="192" y="27.303" xlink:href="#glyph-0-15"/><use x="196" y="27.303" xlink:href="#glyph-0-8"/><use x="200" y="27.303" xlink:href="#glyph-0-7"/></g><g fill="#212529" fill-opacity="1"><use x="30" y="34.885" xlink:href="#glyph-1-0"/><use x="35" y="34.885" xlink:href="#glyph-1-1"/><use x="40" y="34.885" xlink:href="#glyph-1-2"/><use x="46" y="34.885" xlink:href="#glyph-1-3"/><use x="49" y="34.885" xlink:href="#glyph-1-4"/><use x="54" y="34.885" xlink:href="#glyph-1-5"/><use x="59" y="34.885" xlink:href="#glyph-1-6"/><use x="65" y="34.885" xlink:href="#glyph-1-3"/><use x="68" y="34.885" xlink:href="#glyph-1-7"/><use x="76" y="34.885" xlink:href="#glyph-1-5"/><use x="81" y="34.885" xlink:href="#glyph-1-8"/><use x="86" y="34.885" xlink:href="#glyph-1-9"/><use x="91" y="34.885" xlink:href="#glyph-1-3"/><use x="94" y="34.885" xlink:href="#glyph-1-10"/><use x="97" y="34.885" xlink:href="#glyph-1-11"/><use x="101" y="34.885" xlink:href="#glyph-1-1"/><use x="106" y="34.885" xlink:href="#glyph-1-7"/><use x="114" y="34.885" xlink:href="#glyph-1-3"/><use x="117" y="34.885" xlink:href="#glyph-1-12"/><use x="121" y="34.885" xlink:href="#glyph-1-13"/><use x="127" y="34.885" xlink:href="#glyph-1-9"/><use x="132" y="34.885" xlink:href="#glyph-1-3"/><use x="135" y="34.885" xlink:href="#glyph-1-14"/><use x="140" y="34.885" xlink:href="#glyph-1-15"/><use x="143" y="34.885" xlink:href="#glyph-1-16"/><use x="148" y="34.885" xlink:href="#glyph-1-9"/><use x="153" y="34.885" xlink:href="#glyph-1-6"/><use x="159" y="34.885" xlink:href="#glyph-1-3"/><use x="162" y="34.885" xlink:href="#glyph-1-16"/><use x="167" y="34.885" xlink:href="#glyph-1-9"/><use x="172" y="34.885" xlink:href="#glyph-1-4"/><use x="177" y="34.885" xlink:href="#glyph-1-12"/><use x="181" y="34.885" xlink:href="#glyph-1-1"/><use x="186" y="34.885" xlink:href="#glyph-1-11"/><use x="190" y="34.885" xlink:href="#glyph-1-17"/><use x="194" y="34.885" xlink:href="#glyph-1-18"/><use x="197" y="34.885" xlink:href="#glyph-1-19"/></g></svg>