<svg xmlns="http://www.w3.org/2000/svg" xmlns:xlink="http://www.w3.org/1999/xlink" width="1920" height="1080" viewBox="0 0 1920 1080"><defs><g><g id="glyph-0-0"><path d="M 2.859375 -1.558594 L 2.859375 -1.902344 C 2.859375 -2.304688 2.808594 -2.597656 2.703125 -2.777344 C 2.601562 -2.957031 2.433594 -3.046875 2.207031 -3.046875 C 1.96875 -3.046875 1.800781 -2.953125 1.703125 -2.761719 C 1.609375 -2.570312 1.558594 -2.230469 1.558594 -1.730469 C 1.558594 -1.234375 1.609375 -0.890625 1.707031 -0.699219 C 1.804688 -0.507812 1.96875 -0.414062 2.207031 -0.414062 C 2.433594 -0.414062 2.601562 -0.503906 2.703125 -0.683594 C 2.808594 -0.863281 2.859375 -1.15625 2.859375 -1.558594 M 4.015625 -0.394531 L 4.503906 -0.394531 L 4.503906 0 L 2.859375 0 L 2.859375 -0.4375 C 2.761719 -0.257812 2.632812 -0.125 2.464844 -0.0390625 C 2.300781 0.0507812 2.09375 0.09375 1.851562 0.09375 C 1.363281 0.09375 0.976562 -0.0703125 0.695312 -0.394531 C 0.414062 -0.71875 0.273438 -1.164062 0.273438 -1.730469 C 0.273438 -2.300781 0.414062 -2.746094 0.695312 -3.070312 C 0.976562 -3.394531 1.363281 -3.554688 1.851562 -3.554688 C 2.09375 -3.554688 2.300781 -3.511719 2.464844 -3.421875 C 2.632812 -3.335938 2.761719 -3.199219 2.859375 -3.019531 L 2.859375 -4.675781 L 2.367188 -4.675781 L 2.367188 -5.066406 L 4.015625 -5.066406 Z"/></g><g id="glyph-0-1"><path d="M 2.671875 -1.953125 C 2.671875 -2.410156 2.628906 -2.726562 2.546875 -2.910156 C 2.460938 -3.09375 2.316406 -3.1875 2.113281 -3.1875 C 1.914062 -3.1875 1.773438 -3.097656 1.6875 -2.917969 C 1.601562 -2.738281 1.558594 -2.433594 1.558594 -2.011719 L 1.558594 -1.953125 L 2.671875 -1.953125 M 3.9375 -1.566406 L 1.558594 -1.566406 L 1.558594 -1.539062 C 1.558594 -1.09375 1.625 -0.769531 1.761719 -0.570312 C 1.894531 -0.371094 2.113281 -0.273438 2.414062 -0.273438 C 2.660156 -0.273438 2.863281 -0.339844 3.015625 -0.472656 C 3.171875 -0.605469 3.269531 -0.796875 3.3125 -1.046875 L 3.855469 -1.046875 C 3.761719 -0.65625 3.574219 -0.367188 3.296875 -0.183594 C 3.019531 0.00390625 2.632812 0.09375 2.132812 0.09375 C 1.53125 0.09375 1.074219 -0.0625 0.753906 -0.378906 C 0.433594 -0.695312 0.273438 -1.144531 0.273438 -1.730469 C 0.273438 -2.304688 0.4375 -2.75 0.765625 -3.074219 C 1.09375 -3.394531 1.546875 -3.554688 2.132812 -3.554688 C 2.703125 -3.554688 3.144531 -3.386719 3.449219 -3.046875 C 3.757812 -2.710938 3.917969 -2.21875 3.9375 -1.566406 Z"/></g><g id="glyph-0-2"><path d="M 1.800781 -1.902344 L 1.800781 -1.558594 C 1.800781 -1.15625 1.851562 -0.863281 1.953125 -0.683594 C 2.058594 -0.503906 2.222656 -0.414062 2.453125 -0.414062 C 2.691406 -0.414062 2.859375 -0.507812 2.953125 -0.699219 C 3.050781 -0.890625 3.097656 -1.234375 3.097656 -1.730469 C 3.097656 -2.230469 3.050781 -2.570312 2.953125 -2.761719 C 2.859375 -2.953125 2.691406 -3.046875 2.453125 -3.046875 C 2.222656 -3.046875 2.058594 -2.957031 1.953125 -2.777344 C 1.851562 -2.597656 1.800781 -2.304688 1.800781 -1.902344 M 0.648438 -3.066406 L 0.152344 -3.066406 L 0.152344 -3.460938 L 1.800781 -3.460938 L 1.800781 -3.019531 C 1.898438 -3.199219 2.027344 -3.335938 2.195312 -3.421875 C 2.359375 -3.511719 2.5625 -3.554688 2.804688 -3.554688 C 3.296875 -3.554688 3.6875 -3.390625 3.96875 -3.066406 C 4.253906 -2.742188 4.394531 -2.296875 4.394531 -1.730469 C 4.394531 -1.164062 4.253906 -0.71875 3.96875 -0.394531 C 3.6875 -0.0703125 3.296875 0.09375 2.804688 0.09375 C 2.5625 0.09375 2.359375 0.0507812 2.195312 -0.0390625 C 2.027344 -0.125 1.898438 -0.257812 1.800781 -0.4375 L 1.800781 0.992188 L 2.335938 0.992188 L 2.335938 1.386719 L 0.152344 1.386719 L 0.152344 0.992188 L 0.648438 0.992188 Z"/></g><g id="glyph-0-3"><path d="M 0.226562 0 L 0.226562 -0.394531 L 0.71875 -0.394531 L 0.71875 -3.066406 L 0.226562 -3.066406 L 0.226562 -3.460938 L 1.871094 -3.460938 L 1.871094 -2.972656 C 2.011719 -3.179688 2.167969 -3.328125 2.347656 -3.417969 C 2.523438 -3.507812 2.75 -3.554688 3.019531 -3.554688 C 3.410156 -3.554688 3.703125 -3.441406 3.902344 -3.210938 C 4.101562 -2.980469 4.199219 -2.644531 4.199219 -2.199219 L 4.199219 -0.394531 L 4.695312 -0.394531 L 4.695312 0 L 2.625 0 L 2.625 -0.394531 L 3.046875 -0.394531 L 3.046875 -2.234375 C 3.046875 -2.527344 3.007812 -2.730469 2.933594 -2.84375 C 2.859375 -2.957031 2.730469 -3.015625 2.546875 -3.015625 C 2.3125 -3.015625 2.144531 -2.929688 2.035156 -2.757812 C 1.925781 -2.589844 1.871094 -2.316406 1.871094 -1.945312 L 1.871094 -0.394531 L 2.296875 -0.394531 L 2.296875 0 Z"/></g><g id="glyph-0-4"><path d="M 0.660156 -3.066406 L 0.160156 -3.066406 L 0.160156 -3.460938 L 0.660156 -3.460938 L 0.660156 -4.535156 L 1.8125 -4.535156 L 1.8125 -3.460938 L 2.773438 -3.460938 L 2.773438 -3.066406 L 1.8125 -3.066406 L 1.8125 -0.945312 C 1.8125 -0.644531 1.835938 -0.457031 1.882812 -0.382812 C 1.933594 -0.308594 2.019531 -0.273438 2.144531 -0.273438 C 2.285156 -0.273438 2.386719 -0.320312 2.453125 -0.414062 C 2.523438 -0.507812 2.558594 -0.652344 2.5625 -0.847656 L 3.046875 -0.847656 C 3.027344 -0.5 2.933594 -0.253906 2.761719 -0.117188 C 2.589844 0.0234375 2.296875 0.09375 1.882812 0.09375 C 1.40625 0.09375 1.085938 0.0195312 0.914062 -0.128906 C 0.746094 -0.277344 0.660156 -0.550781 0.660156 -0.945312 Z"/></g><g id="glyph-1-1"><path d="M 1.488281 0 L 0.261719 -3.066406 L -0.121094 -3.066406 L -0.121094 -3.460938 L 1.863281 -3.460938 L 1.863281 -3.066406 L 1.445312 -3.066406 L 2.320312 -0.878906 L 3.191406 -3.066406 L 2.742188 -3.066406 L 2.742188 -3.460938 L 4.039062 -3.460938 L 4.039062 -3.066406 L 3.640625 -3.066406 L 2.414062 0 Z"/></g><g id="glyph-1-2"><path d="M 2.671875 -1.953125 C 2.671875 -2.410156 2.628906 -2.726562 2.546875 -2.910156 C 2.460938 -3.09375 2.316406 -3.1875 2.113281 -3.1875 C 1.914062 -3.1875 1.773438 -3.097656 1.6875 -2.917969 C 1.601562 -2.738281 1.558594 -2.433594 1.558594 -2.011719 L 1.558594 -1.953125 L 2.671875 -1.953125 M 3.9375 -1.566406 L 1.558594 -1.566406 L 1.558594 -1.539062 C 1.558594 -1.09375 1.625 -0.769531 1.761719 -0.570312 C 1.894531 -0.371094 2.113281 -0.273438 2.414062 -0.273438 C 2.660156 -0.273438 2.863281 -0.339844 3.015625 -0.472656 C 3.171875 -0.605469 3.269531 -0.796875 3.3125 -1.046875 L 3.855469 -1.046875 C 3.761719 -0.65625 3.574219 -0.367188 3.296875 -0.183594 C 3.019531 0.00390625 2.632812 0.09375 2.132812 0.09375 C 1.53125 0.09375 1.074219 -0.0625 0.753906 -0.378906 C 0.433594 -0.695312 0.273438 -1.144531 0.273438 -1.730469 C 0.273438 -2.304688 0.4375 -2.75 0.765625 -3.074219 C 1.09375 -3.394531 1.546875 -3.554688 2.132812 -3.554688 C 2.703125 -3.554688 3.144531 -3.386719 3.449219 -3.046875 C 3.757812 -2.710938 3.917969 -2.21875 3.9375 -1.566406 Z"/></g><g id="glyph-1-3"><path d="M 3.757812 -1.082031 C 3.675781 -0.6875 3.507812 -0.390625 3.253906 -0.195312 C 3 -0.00390625 2.652344 0.09375 2.214844 0.09375 C 1.597656 0.09375 1.121094 -0.0664062 0.78125 -0.382812 C 0.441406 -0.703125 0.273438 -1.152344 0.273438 -1.730469 C 0.273438 -2.304688 0.441406 -2.75 0.773438 -3.074219 C 1.109375 -3.394531 1.574219 -3.554688 2.167969 -3.554688 C 2.410156 -3.554688 2.652344 -3.53125 2.898438 -3.484375 C 3.140625 -3.441406 3.390625 -3.371094 3.644531 -3.28125 L 3.644531 -2.320312 L 3.28125 -2.320312 C 3.246094 -2.613281 3.160156 -2.832031 3.023438 -2.972656 C 2.886719 -3.117188 2.695312 -3.1875 2.449219 -3.1875 C 2.125 -3.1875 1.898438 -3.078125 1.761719 -2.859375 C 1.628906 -2.644531 1.558594 -2.269531 1.558594 -1.730469 C 1.558594 -1.207031 1.625 -0.835938 1.757812 -0.609375 C 1.890625 -0.386719 2.105469 -0.273438 2.40625 -0.273438 C 2.636719 -0.273438 2.824219 -0.34375 2.964844 -0.480469 C 3.105469 -0.621094 3.1875 -0.820312 3.21875 -1.082031 Z"/></g><g id="glyph-1-4"><path d="M 0.660156 -3.066406 L 0.160156 -3.066406 L 0.160156 -3.460938 L 0.660156 -3.460938 L 0.660156 -4.535156 L 1.8125 -4.535156 L 1.8125 -3.460938 L 2.773438 -3.460938 L 2.773438 -3.066406 L 1.8125 -3.066406 L 1.8125 -0.945312 C 1.8125 -0.644531 1.835938 -0.457031 1.882812 -0.382812 C 1.933594 -0.308594 2.019531 -0.273438 2.144531 -0.273438 C 2.285156 -0.273438 2.386719 -0.320312 2.453125 -0.414062 C 2.523438 -0.507812 2.558594 -0.652344 2.5625 -0.847656 L 3.046875 -0.847656 C 3.027344 -0.5 2.933594 -0.253906 2.761719 -0.117188 C 2.589844 0.0234375 2.296875 0.09375 1.882812 0.09375 C 1.40625 0.09375 1.085938 0.0195312 0.914062 -0.128906 C 0.746094 -0.277344 0.660156 -0.550781 0.660156 -0.945312 Z"/></g><g id="glyph-1-5"><path d="M 2.226562 -0.273438 C 2.46875 -0.273438 2.640625 -0.378906 2.738281 -0.585938 C 2.839844 -0.792969 2.886719 -1.175781 2.886719 -1.730469 C 2.886719 -2.289062 2.839844 -2.667969 2.742188 -2.875 C 2.644531 -3.082031 2.472656 -3.1875 2.226562 -3.1875 C 1.980469 -3.1875 1.808594 -3.082031 1.707031 -2.871094 C 1.609375 -2.664062 1.558594 -2.28125 1.558594 -1.730469 C 1.558594 -1.179688 1.609375 -0.800781 1.707031 -0.589844 C 1.808594 -0.378906 1.980469 -0.273438 2.226562 -0.273438 M 2.226562 0.09375 C 1.617188 0.09375 1.140625 -0.0664062 0.792969 -0.390625 C 0.445312 -0.714844 0.273438 -1.164062 0.273438 -1.730469 C 0.273438 -2.300781 0.445312 -2.75 0.792969 -3.070312 C 1.140625 -3.394531 1.617188 -3.554688 2.226562 -3.554688 C 2.839844 -3.554688 3.316406 -3.394531 3.660156 -3.070312 C 4.007812 -2.75 4.179688 -2.300781 4.179688 -1.730469 C 4.179688 -1.164062 4.007812 -0.714844 3.660156 -0.390625 C 3.3125 -0.0664062 2.835938 0.09375 2.226562 0.09375 Z"/></g><g id="glyph-1-6"><path d="M 3.582031 -3.5 L 3.582031 -2.46875 L 3.210938 -2.46875 C 3.199219 -2.652344 3.148438 -2.789062 3.0625 -2.878906 C 2.976562 -2.96875 2.851562 -3.015625 2.683594 -3.015625 C 2.433594 -3.015625 2.234375 -2.902344 2.089844 -2.683594 C 1.945312 -2.460938 1.871094 -2.152344 1.871094 -1.761719 L 1.871094 -0.394531 L 2.5 -0.394531 L 2.5 0 L 0.226562 0 L 0.226562 -0.394531 L 0.71875 -0.394531 L 0.71875 -3.066406 L 0.191406 -3.066406 L 0.191406 -3.460938 L 1.871094 -3.460938 L 1.871094 -2.84375 C 1.984375 -3.085938 2.132812 -3.265625 2.320312 -3.378906 C 2.503906 -3.496094 2.730469 -3.554688 3 -3.554688 C 3.070312 -3.554688 3.152344 -3.550781 3.246094 -3.539062 C 3.34375 -3.53125 3.453125 -3.515625 3.582031 -3.5 Z"/></g><g id="glyph-1-7"><path d="M 0.3125 -0.101562 L 0.3125 -1.066406 L 0.679688 -1.066406 C 0.710938 -0.808594 0.808594 -0.613281 0.96875 -0.476562 C 1.132812 -0.339844 1.355469 -0.273438 1.632812 -0.273438 C 1.867188 -0.273438 2.046875 -0.3125 2.171875 -0.394531 C 2.296875 -0.476562 2.359375 -0.59375 2.359375 -0.746094 C 2.359375 -0.882812 2.320312 -0.992188 2.242188 -1.066406 C 2.160156 -1.144531 2.007812 -1.210938 1.78125 -1.265625 L 1.304688 -1.386719 C 0.945312 -1.476562 0.6875 -1.601562 0.527344 -1.769531 C 0.367188 -1.933594 0.285156 -2.160156 0.285156 -2.441406 C 0.285156 -2.816406 0.417969 -3.097656 0.675781 -3.28125 C 0.9375 -3.464844 1.339844 -3.554688 1.882812 -3.554688 C 2.085938 -3.554688 2.304688 -3.539062 2.535156 -3.503906 C 2.765625 -3.46875 3.019531 -3.417969 3.300781 -3.347656 L 3.300781 -2.472656 L 2.933594 -2.472656 C 2.914062 -2.710938 2.828125 -2.886719 2.679688 -3.007812 C 2.53125 -3.128906 2.320312 -3.1875 2.039062 -3.1875 C 1.804688 -3.1875 1.628906 -3.148438 1.507812 -3.074219 C 1.386719 -3 1.328125 -2.890625 1.328125 -2.746094 C 1.328125 -2.628906 1.363281 -2.539062 1.433594 -2.46875 C 1.5 -2.402344 1.625 -2.347656 1.804688 -2.300781 L 2.277344 -2.179688 C 2.730469 -2.066406 3.046875 -1.921875 3.21875 -1.753906 C 3.394531 -1.585938 3.480469 -1.351562 3.480469 -1.046875 C 3.480469 -0.65625 3.339844 -0.371094 3.0625 -0.183594 C 2.78125 0 2.347656 0.09375 1.761719 0.09375 C 1.546875 0.09375 1.316406 0.078125 1.078125 0.046875 C 0.835938 0.0117188 0.582031 -0.0351562 0.3125 -0.101562 Z"/></g><g id="glyph-1-8"><path d="M 0.378906 -1.796875 L 0.378906 -2.511719 L 4.234375 -2.511719 L 3.8125 -3.515625 L 3.980469 -3.515625 L 5.339844 -2.171875 L 5.339844 -2.140625 L 3.980469 -0.792969 L 3.8125 -0.792969 L 4.234375 -1.796875 Z"/></g><g id="glyph-1-9"><path d="M 3.671875 -2.125 L 3.671875 -0.394531 L 4.167969 -0.394531 L 4.167969 0 L 2.519531 0 L 2.519531 -0.4375 C 2.367188 -0.257812 2.199219 -0.121094 2.011719 -0.0351562 C 1.824219 0.0507812 1.613281 0.09375 1.375 0.09375 C 1.019531 0.09375 0.75 0 0.558594 -0.191406 C 0.367188 -0.378906 0.273438 -0.652344 0.273438 -1.007812 C 0.273438 -1.394531 0.410156 -1.683594 0.683594 -1.878906 C 0.953125 -2.070312 1.363281 -2.167969 1.914062 -2.167969 L 2.519531 -2.167969 L 2.519531 -2.375 C 2.519531 -2.652344 2.453125 -2.859375 2.320312 -2.992188 C 2.1875 -3.125 1.984375 -3.191406 1.707031 -3.191406 C 1.476562 -3.191406 1.296875 -3.144531 1.171875 -3.050781 C 1.046875 -2.957031 0.960938 -2.800781 0.90625 -2.585938 L 0.539062 -2.585938 L 0.539062 -3.332031 C 0.746094 -3.40625 0.960938 -3.460938 1.179688 -3.5 C 1.402344 -3.535156 1.636719 -3.554688 1.882812 -3.554688 C 2.5 -3.554688 2.953125 -3.441406 3.242188 -3.210938 C 3.527344 -2.980469 3.671875 -2.617188 3.671875 -2.125 M 2.519531 -1.085938 L 2.519531 -1.78125 L 2.085938 -1.78125 C 1.871094 -1.78125 1.707031 -1.722656 1.589844 -1.605469 C 1.476562 -1.488281 1.417969 -1.320312 1.417969 -1.101562 C 1.417969 -0.882812 1.460938 -0.71875 1.542969 -0.609375 C 1.628906 -0.5 1.753906 -0.445312 1.925781 -0.445312 C 2.105469 -0.445312 2.25 -0.503906 2.355469 -0.621094 C 2.464844 -0.738281 2.519531 -0.894531 2.519531 -1.085938 Z"/></g><g id="glyph-1-10"><path d="M 4.046875 -2.894531 C 4.207031 -3.125 4.378906 -3.292969 4.566406 -3.398438 C 4.753906 -3.503906 4.972656 -3.554688 5.222656 -3.554688 C 5.617188 -3.554688 5.914062 -3.441406 6.113281 -3.21875 C 6.308594 -2.992188 6.40625 -2.652344 6.40625 -2.199219 L 6.40625 -0.394531 L 6.902344 -0.394531 L 6.902344 0 L 4.839844 0 L 4.839844 -0.394531 L 5.253906 -0.394531 L 5.253906 -2.027344 C 5.253906 -2.460938 5.222656 -2.730469 5.15625 -2.84375 C 5.089844 -2.957031 4.964844 -3.015625 4.785156 -3.015625 C 4.582031 -3.015625 4.421875 -2.9375 4.308594 -2.777344 C 4.195312 -2.621094 4.140625 -2.398438 4.140625 -2.105469 L 4.140625 -0.394531 L 4.554688 -0.394531 L 4.554688 0 L 2.574219 0 L 2.574219 -0.394531 L 2.988281 -0.394531 L 2.988281 -2.027344 C 2.988281 -2.460938 2.953125 -2.730469 2.886719 -2.84375 C 2.820312 -2.957031 2.699219 -3.015625 2.519531 -3.015625 C 2.3125 -3.015625 2.152344 -2.9375 2.039062 -2.777344 C 1.929688 -2.621094 1.871094 -2.398438 1.871094 -2.105469 L 1.871094 -0.394531 L 2.285156 -0.394531 L 2.285156 0 L 0.226562 0 L 0.226562 -0.394531 L 0.71875 -0.394531 L 0.71875 -3.066406 L 0.226562 -3.066406 L 0.226562 -3.460938 L 1.871094 -3.460938 L 1.871094 -2.972656 C 2.007812 -3.171875 2.160156 -3.320312 2.335938 -3.414062 C 2.507812 -3.507812 2.714844 -3.554688 2.953125 -3.554688 C 3.234375 -3.554688 3.464844 -3.5 3.640625 -3.394531 C 3.816406 -3.285156 3.949219 -3.121094 4.046875 -2.894531 Z"/></g><g id="glyph-2-0"><path d="M 0.3125 -0.101562 L 0.3125 -1.066406 L 0.679688 -1.066406 C 0.710938 -0.808594 0.808594 -0.613281 0.96875 -0.476562 C 1.132812 -0.339844 1.355469 -0.273438 1.632812 -0.273438 C 1.867188 -0.273438 2.046875 -0.3125 2.171875 -0.394531 C 2.296875 -0.476562 2.359375 -0.59375 2.359375 -0.746094 C 2.359375 -0.882812 2.320312 -0.992188 2.242188 -1.066406 C 2.160156 -1.144531 2.007812 -1.210938 1.78125 -1.265625 L 1.304688 -1.386719 C 0.945312 -1.476562 0.6875 -1.601562 0.527344 -1.769531 C 0.367188 -1.933594 0.285156 -2.160156 0.285156 -2.441406 C 0.285156 -2.816406 0.417969 -3.097656 0.675781 -3.28125 C 0.9375 -3.464844 1.339844 -3.554688 1.882812 -3.554688 C 2.085938 -3.554688 2.304688 -3.539062 2.535156 -3.503906 C 2.765625 -3.46875 3.019531 -3.417969 3.300781 -3.347656 L 3.300781 -2.472656 L 2.933594 -2.472656 C 2.914062 -2.710938 2.828125 -2.886719 2.679688 -3.007812 C 2.53125 -3.128906 2.320312 -3.1875 2.039062 -3.1875 C 1.804688 -3.1875 1.628906 -3.148438 1.507812 -3.074219 C 1.386719 -3 1.328125 -2.890625 1.328125 -2.746094 C 1.328125 -2.628906 1.363281 -2.539062 1.433594 -2.46875 C 1.5 -2.402344 1.625 -2.347656 1.804688 -2.300781 L 2.277344 -2.179688 C 2.730469 -2.066406 3.046875 -1.921875 3.21875 -1.753906 C 3.394531 -1.585938 3.480469 -1.351562 3.480469 -1.046875 C 3.480469 -0.65625 3.339844 -0.371094 3.0625 -0.183594 C 2.78125 0 2.347656 0.09375 1.761719 0.09375 C 1.546875 0.09375 1.316406 0.078125 1.078125 0.046875 C 0.835938 0.0117188 0.582031 -0.0351562 0.3125 -0.101562 Z"/></g><g id="glyph-2-1"><path d="M 1.800781 -1.902344 L 1.800781 -1.558594 C 1.800781 -1.15625 1.851562 -0.863281 1.953125 -0.683594 C 2.058594 -0.503906 2.222656 -0.414062 2.453125 -0.414062 C 2.691406 -0.414062 2.859375 -0.507812 2.953125 -0.699219 C 3.050781 -0.890625 3.097656 -1.234375 3.097656 -1.730469 C 3.097656 -2.230469 3.050781 -2.570312 2.953125 -2.761719 C 2.859375 -2.953125 2.691406 -3.046875 2.453125 -3.046875 C 2.222656 -3.046875 2.058594 -2.957031 1.953125 -2.777344 C 1.851562 -2.597656 1.800781 -2.304688 1.800781 -1.902344 M 0.648438 -3.066406 L 0.152344 -3.066406 L 0.152344 -3.460938 L 1.800781 -3.460938 L 1.800781 -3.019531 C 1.898438 -3.199219 2.027344 -3.335938 2.195312 -3.421875 C 2.359375 -3.511719 2.5625 -3.554688 2.804688 -3.554688 C 3.296875 -3.554688 3.6875 -3.390625 3.96875 -3.066406 C 4.253906 -2.742188 4.394531 -2.296875 4.394531 -1.730469 C 4.394531 -1.164062 4.253906 -0.71875 3.96875 -0.394531 C 3.6875 -0.0703125 3.296875 0.09375 2.804688 0.09375 C 2.5625 0.09375 2.359375 0.0507812 2.195312 -0.0390625 C 2.027344 -0.125 1.898438 -0.257812 1.800781 -0.4375 L 1.800781 0.992188 L 2.335938 0.992188 L 2.335938 1.386719 L 0.152344 1.386719 L 0.152344 0.992188 L 0.648438 0.992188 Z"/></g><g id="glyph-2-2"><path d="M 3.671875 -2.125 L 3.671875 -0.394531 L 4.167969 -0.394531 L 4.167969 0 L 2.519531 0 L 2.519531 -0.4375 C 2.367188 -0.257812 2.199219 -0.121094 2.011719 -0.0351562 C 1.824219 0.0507812 1.613281 0.09375 1.375 0.09375 C 1.019531 0.09375 0.75 0 0.558594 -0.191406 C 0.367188 -0.378906 0.273438 -0.652344 0.273438 -1.007812 C 0.273438 -1.394531 0.410156 -1.683594 0.683594 -1.878906 C 0.953125 -2.070312 1.363281 -2.167969 1.914062 -2.167969 L 2.519531 -2.167969 L 2.519531 -2.375 C 2.519531 -2.652344 2.453125 -2.859375 2.320312 -2.992188 C 2.1875 -3.125 1.984375 -3.191406 1.707031 -3.191406 C 1.476562 -3.191406 1.296875 -3.144531 1.171875 -3.050781 C 1.046875 -2.957031 0.960938 -2.800781 0.90625 -2.585938 L 0.539062 -2.585938 L 0.539062 -3.332031 C 0.746094 -3.40625 0.960938 -3.460938 1.179688 -3.5 C 1.402344 -3.535156 1.636719 -3.554688 1.882812 -3.554688 C 2.5 -3.554688 2.953125 -3.441406 3.242188 -3.210938 C 3.527344 -2.980469 3.671875 -2.617188 3.671875 -2.125 M 2.519531 -1.085938 L 2.519531 -1.78125 L 2.085938 -1.78125 C 1.871094 -1.78125 1.707031 -1.722656 1.589844 -1.605469 C 1.476562 -1.488281 1.417969 -1.320312 1.417969 -1.101562 C 1.417969 -0.882812 1.460938 -0.71875 1.542969 -0.609375 C 1.628906 -0.5 1.753906 -0.445312 1.925781 -0.445312 C 2.105469 -0.445312 2.25 -0.503906 2.355469 -0.621094 C 2.464844 -0.738281 2.519531 -0.894531 2.519531 -1.085938 Z"/></g><g id="glyph-2-3"><path d="M 0.226562 0 L 0.226562 -0.394531 L 0.71875 -0.394531 L 0.71875 -3.066406 L 0.226562 -3.066406 L 0.226562 -3.460938 L 1.871094 -3.460938 L 1.871094 -2.972656 C 2.011719 -3.179688 2.167969 -3.328125 2.347656 -3.417969 C 2.523438 -3.507812 2.75 -3.554688 3.019531 -3.554688 C 3.410156 -3.554688 3.703125 -3.441406 3.902344 -3.210938 C 4.101562 -2.980469 4.199219 -2.644531 4.199219 -2.199219 L 4.199219 -0.394531 L 4.695312 -0.394531 L 4.695312 0 L 2.625 0 L 2.625 -0.394531 L 3.046875 -0.394531 L 3.046875 -2.234375 C 3.046875 -2.527344 3.007812 -2.730469 2.933594 -2.84375 C 2.859375 -2.957031 2.730469 -3.015625 2.546875 -3.015625 C 2.3125 -3.015625 2.144531 -2.929688 2.035156 -2.757812 C 1.925781 -2.589844 1.871094 -2.316406 1.871094 -1.945312 L 1.871094 -0.394531 L 2.296875 -0.394531 L 2.296875 0 Z"/></g></g></defs><g fill="#0366D6" fill-opacity="1"><use x="30" y="26.259" xlink:href="#glyph-0-0"/><use x="35" y="26.259" xlink:href="#glyph-0-1"/><use x="39" y="26.259" xlink:href="#glyph-0-2"/><use x="44" y="26.259" xlink:href="#glyph-0-1"/><use x="48" y="26.259" xlink:href="#glyph-0-3"/><use x="53" y="26.259" xlink:href="#glyph-0-0"/><use x="58" y="26.259" xlink:href="#glyph-0-1"/><use x="62" y="26.259" xlink:href="#glyph-0-3"/><use x="67" y="26.259" xlink:href="#glyph-0-4"/></g><g fill="#212529" fill-opacity="1"><use x="70" y="26.259" xlink:href="#glyph-1-0"/><use x="72" y="26.259" xlink:href="#glyph-1-1"/><use x="76" y="26.259" xlink:href="#glyph-1-2"/><use x="80" y="26.259" xlink:href="#glyph-1-3"/><use x="84" y="26.259" xlink:href="#glyph-1-4"/><use x="87" y="26.259" xlink:href="#glyph-1-5"/><use x="91" y="26.259" xlink:href="#glyph-1-6"/><use x="95" y="26.259" xlink:href="#glyph-1-7"/><use x="99" y="26.259" xlink:href="#glyph-1-0"/><use x="101" y="26.259" xlink:href="#glyph-1-8"/><use x="107" y="26.259" xlink:href="#glyph-1-0"/><use x="109" y="26.259" xlink:href="#glyph-1-7"/><use x="113" y="26.259" xlink:href="#glyph-1-9"/><use x="117" y="26.259" xlink:href="#glyph-1-10"/><use x="124" y="26.259" xlink:href="#glyph-1-2"/><use x="128" y="26.259" xlink:href="#glyph-1-0"/></g><g fill="#0366D6" fill-opacity="1"><use x="130" y="26.259" xlink:href="#glyph-2-0"/><use x="134" y="26.259" xlink:href="#glyph-2-1"/><use x="139" y="26.259" xlink:href="#glyph-2-2"/><use x="143" y="26.259" xlink:href="#glyph-2-3"/></g></svg>