<svg xmlns="http://www.w3.org/2000/svg" xmlns:xlink="http://www.w3.org/1999/xlink" width="1920" height="1080" viewBox="0 0 1920 1080"><defs><g><g id="glyph-0-0"><path d="M 0.511719 -3.699219 C 0.511719 -3.847656 0.5625 -3.96875 0.660156 -4.070312 C 0.761719 -4.171875 0.886719 -4.222656 1.035156 -4.222656 C 1.175781 -4.222656 1.296875 -4.171875 1.398438 -4.070312 C 1.5 -3.96875 1.550781 -3.847656 1.550781 -3.699219 C 1.550781 -3.558594 1.5 -3.4375 1.398438 -3.335938 C 1.296875 -3.234375 1.175781 -3.183594 1.035156 -3.183594 C 0.886719 -3.183594 0.761719 -3.234375 0.660156 -3.335938 C 0.5625 -3.433594 0.511719 -3.554688 0.511719 -3.699219 M 1.558594 -0.328125 L 1.972656 -0.328125 L 1.972656 0 L 0.191406 0 L 0.191406 -0.328125 L 0.597656 -0.328125 L 0.597656 -2.554688 L 0.191406 -2.554688 L 0.191406 -2.882812 L 1.558594 -2.882812 Z"/></g><g id="glyph-0-1"><path d="M 0.191406 0 L 0.191406 -0.328125 L 0.597656 -0.328125 L 0.597656 -2.554688 L 0.191406 -2.554688 L 0.191406 -2.882812 L 1.558594 -2.882812 L 1.558594 -2.476562 C 1.675781 -2.648438 1.808594 -2.773438 1.957031 -2.847656 C 2.105469 -2.925781 2.292969 -2.960938 2.515625 -2.960938 C 2.839844 -2.960938 3.085938 -2.867188 3.25 -2.675781 C 3.417969 -2.484375 3.5 -2.203125 3.5 -1.832031 L 3.5 -0.328125 L 3.910156 -0.328125 L 3.910156 0 L 2.1875 0 L 2.1875 -0.328125 L 2.539062 -0.328125 L 2.539062 -1.859375 C 2.539062 -2.105469 2.507812 -2.273438 2.445312 -2.371094 C 2.382812 -2.464844 2.273438 -2.511719 2.121094 -2.511719 C 1.929688 -2.511719 1.785156 -2.441406 1.695312 -2.300781 C 1.605469 -2.15625 1.558594 -1.929688 1.558594 -1.621094 L 1.558594 -0.328125 L 1.914062 -0.328125 L 1.914062 0 Z"/></g><g id="glyph-0-2"><path d="M 2.382812 -1.300781 L 2.382812 -1.585938 C 2.382812 -1.921875 2.339844 -2.164062 2.253906 -2.3125 C 2.167969 -2.464844 2.027344 -2.539062 1.839844 -2.539062 C 1.640625 -2.539062 1.5 -2.460938 1.421875 -2.300781 C 1.339844 -2.144531 1.300781 -1.859375 1.300781 -1.441406 C 1.300781 -1.027344 1.339844 -0.742188 1.421875 -0.582031 C 1.503906 -0.425781 1.640625 -0.34375 1.839844 -0.34375 C 2.027344 -0.34375 2.167969 -0.417969 2.253906 -0.570312 C 2.339844 -0.71875 2.382812 -0.964844 2.382812 -1.300781 M 3.34375 -0.328125 L 3.753906 -0.328125 L 3.753906 0 L 2.382812 0 L 2.382812 -0.367188 C 2.304688 -0.214844 2.195312 -0.105469 2.054688 -0.03125 C 1.917969 0.0429688 1.746094 0.078125 1.542969 0.078125 C 1.136719 0.078125 0.8125 -0.0585938 0.578125 -0.328125 C 0.34375 -0.597656 0.226562 -0.972656 0.226562 -1.441406 C 0.226562 -1.917969 0.34375 -2.289062 0.578125 -2.558594 C 0.8125 -2.828125 1.136719 -2.960938 1.542969 -2.960938 C 1.746094 -2.960938 1.917969 -2.925781 2.054688 -2.851562 C 2.195312 -2.78125 2.304688 -2.667969 2.382812 -2.515625 L 2.382812 -3.894531 L 1.972656 -3.894531 L 1.972656 -4.222656 L 3.34375 -4.222656 Z"/></g><g id="glyph-0-3"><path d="M 2.226562 -1.628906 C 2.226562 -2.007812 2.191406 -2.273438 2.121094 -2.425781 C 2.050781 -2.578125 1.929688 -2.65625 1.761719 -2.65625 C 1.597656 -2.65625 1.476562 -2.582031 1.40625 -2.429688 C 1.335938 -2.28125 1.300781 -2.027344 1.300781 -1.675781 L 1.300781 -1.628906 L 2.226562 -1.628906 M 3.28125 -1.304688 L 1.300781 -1.304688 L 1.300781 -1.28125 C 1.300781 -0.910156 1.355469 -0.640625 1.46875 -0.476562 C 1.578125 -0.3125 1.761719 -0.226562 2.011719 -0.226562 C 2.21875 -0.226562 2.386719 -0.28125 2.515625 -0.394531 C 2.644531 -0.503906 2.726562 -0.664062 2.761719 -0.875 L 3.210938 -0.875 C 3.132812 -0.546875 2.980469 -0.304688 2.75 -0.152344 C 2.515625 0 2.191406 0.078125 1.777344 0.078125 C 1.277344 0.078125 0.894531 -0.0546875 0.628906 -0.316406 C 0.359375 -0.578125 0.226562 -0.953125 0.226562 -1.441406 C 0.226562 -1.921875 0.363281 -2.292969 0.636719 -2.5625 C 0.910156 -2.828125 1.289062 -2.960938 1.777344 -2.960938 C 2.253906 -2.960938 2.621094 -2.820312 2.875 -2.539062 C 3.128906 -2.257812 3.265625 -1.847656 3.28125 -1.304688 Z"/></g><g id="glyph-0-4"><path d="M 1.5 -1.585938 L 1.5 -1.300781 C 1.5 -0.964844 1.542969 -0.71875 1.628906 -0.570312 C 1.714844 -0.417969 1.855469 -0.34375 2.046875 -0.34375 C 2.242188 -0.34375 2.382812 -0.425781 2.460938 -0.582031 C 2.542969 -0.742188 2.582031 -1.027344 2.582031 -1.441406 C 2.582031 -1.859375 2.542969 -2.144531 2.460938 -2.300781 C 2.382812 -2.460938 2.242188 -2.539062 2.046875 -2.539062 C 1.855469 -2.539062 1.714844 -2.464844 1.628906 -2.3125 C 1.542969 -2.164062 1.5 -1.921875 1.5 -1.585938 M 0.539062 -2.554688 L 0.128906 -2.554688 L 0.128906 -2.882812 L 1.5 -2.882812 L 1.5 -2.515625 C 1.582031 -2.667969 1.691406 -2.78125 1.828125 -2.851562 C 1.964844 -2.925781 2.136719 -2.960938 2.339844 -2.960938 C 2.75 -2.960938 3.074219 -2.828125 3.308594 -2.558594 C 3.542969 -2.285156 3.664062 -1.914062 3.664062 -1.441406 C 3.664062 -0.972656 3.542969 -0.597656 3.308594 -0.328125 C 3.074219 -0.0585938 2.75 0.078125 2.339844 0.078125 C 2.136719 0.078125 1.964844 0.0429688 1.828125 -0.03125 C 1.691406 -0.105469 1.582031 -0.214844 1.5 -0.367188 L 1.5 0.828125 L 1.945312 0.828125 L 1.945312 1.15625 L 0.128906 1.15625 L 0.128906 0.828125 L 0.539062 0.828125 Z"/></g><g id="glyph-0-5"><path d="M 0.550781 -2.554688 L 0.132812 -2.554688 L 0.132812 -2.882812 L 0.550781 -2.882812 L 0.550781 -3.777344 L 1.511719 -3.777344 L 1.511719 -2.882812 L 2.3125 -2.882812 L 2.3125 -2.554688 L 1.511719 -2.554688 L 1.511719 -0.789062 C 1.511719 -0.539062 1.53125 -0.382812 1.570312 -0.320312 C 1.609375 -0.257812 1.683594 -0.226562 1.789062 -0.226562 C 1.902344 -0.226562 1.988281 -0.265625 2.046875 -0.34375 C 2.101562 -0.421875 2.132812 -0.542969 2.136719 -0.707031 L 2.539062 -0.707031 C 2.523438 -0.414062 2.445312 -0.214844 2.300781 -0.0976562 C 2.160156 0.0195312 1.914062 0.078125 1.566406 0.078125 C 1.171875 0.078125 0.902344 0.015625 0.761719 -0.105469 C 0.621094 -0.230469 0.550781 -0.457031 0.550781 -0.789062 Z"/></g><g id="glyph-1-1"><path d="M 1.238281 0 L 0.21875 -2.554688 L -0.101562 -2.554688 L -0.101562 -2.882812 L 1.554688 -2.882812 L 1.554688 -2.554688 L 1.203125 -2.554688 L 1.933594 -0.734375 L 2.660156 -2.554688 L 2.285156 -2.554688 L 2.285156 -2.882812 L 3.367188 -2.882812 L 3.367188 -2.554688 L 3.03125 -2.554688 L 2.011719 0 Z"/></g><g id="glyph-1-2"><path d="M 2.226562 -1.628906 C 2.226562 -2.007812 2.191406 -2.273438 2.121094 -2.425781 C 2.050781 -2.578125 1.929688 -2.65625 1.761719 -2.65625 C 1.597656 -2.65625 1.476562 -2.582031 1.40625 -2.429688 C 1.335938 -2.28125 1.300781 -2.027344 1.300781 -1.675781 L 1.300781 -1.628906 L 2.226562 -1.628906 M 3.28125 -1.304688 L 1.300781 -1.304688 L 1.300781 -1.28125 C 1.300781 -0.910156 1.355469 -0.640625 1.46875 -0.476562 C 1.578125 -0.3125 1.761719 -0.226562 2.011719 -0.226562 C 2.21875 -0.226562 2.386719 -0.28125 2.515625 -0.394531 C 2.644531 -0.503906 2.726562 -0.664062 2.761719 -0.875 L 3.210938 -0.875 C 3.132812 -0.546875 2.980469 -0.304688 2.75 -0.152344 C 2.515625 0 2.191406 0.078125 1.777344 0.078125 C 1.277344 0.078125 0.894531 -0.0546875 0.628906 -0.316406 C 0.359375 -0.578125 0.226562 -0.953125 0.226562 -1.441406 C 0.226562 -1.921875 0.363281 -2.292969 0.636719 -2.5625 C 0.910156 -2.828125 1.289062 -2.960938 1.777344 -2.960938 C 2.253906 -2.960938 2.621094 -2.820312 2.875 -2.539062 C 3.128906 -2.257812 3.265625 -1.847656 3.28125 -1.304688 Z"/></g><g id="glyph-1-3"><path d="M 3.132812 -0.902344 C 3.066406 -0.570312 2.925781 -0.324219 2.710938 -0.164062 C 2.5 -0.00390625 2.210938 0.078125 1.84375 0.078125 C 1.332031 0.078125 0.933594 -0.0546875 0.652344 -0.320312 C 0.367188 -0.585938 0.226562 -0.960938 0.226562 -1.441406 C 0.226562 -1.921875 0.367188 -2.292969 0.644531 -2.5625 C 0.925781 -2.828125 1.3125 -2.960938 1.808594 -2.960938 C 2.007812 -2.960938 2.210938 -2.945312 2.414062 -2.90625 C 2.617188 -2.867188 2.828125 -2.8125 3.039062 -2.734375 L 3.039062 -1.933594 L 2.734375 -1.933594 C 2.707031 -2.179688 2.632812 -2.359375 2.519531 -2.476562 C 2.40625 -2.597656 2.246094 -2.65625 2.039062 -2.65625 C 1.773438 -2.65625 1.582031 -2.566406 1.46875 -2.382812 C 1.355469 -2.203125 1.300781 -1.890625 1.300781 -1.441406 C 1.300781 -1.007812 1.355469 -0.695312 1.464844 -0.507812 C 1.574219 -0.320312 1.753906 -0.226562 2.003906 -0.226562 C 2.199219 -0.226562 2.351562 -0.285156 2.46875 -0.402344 C 2.585938 -0.515625 2.65625 -0.683594 2.683594 -0.902344 Z"/></g><g id="glyph-1-4"><path d="M 0.550781 -2.554688 L 0.132812 -2.554688 L 0.132812 -2.882812 L 0.550781 -2.882812 L 0.550781 -3.777344 L 1.511719 -3.777344 L 1.511719 -2.882812 L 2.3125 -2.882812 L 2.3125 -2.554688 L 1.511719 -2.554688 L 1.511719 -0.789062 C 1.511719 -0.539062 1.53125 -0.382812 1.570312 -0.320312 C 1.609375 -0.257812 1.683594 -0.226562 1.789062 -0.226562 C 1.902344 -0.226562 1.988281 -0.265625 2.046875 -0.34375 C 2.101562 -0.421875 2.132812 -0.542969 2.136719 -0.707031 L 2.539062 -0.707031 C 2.523438 -0.414062 2.445312 -0.214844 2.300781 -0.0976562 C 2.160156 0.0195312 1.914062 0.078125 1.566406 0.078125 C 1.171875 0.078125 0.902344 0.015625 0.761719 -0.105469 C 0.621094 -0.230469 0.550781 -0.457031 0.550781 -0.789062 Z"/></g><g id="glyph-1-5"><path d="M 1.855469 -0.226562 C 2.058594 -0.226562 2.199219 -0.316406 2.28125 -0.488281 C 2.363281 -0.660156 2.40625 -0.980469 2.40625 -1.441406 C 2.40625 -1.90625 2.367188 -2.222656 2.285156 -2.398438 C 2.203125 -2.570312 2.058594 -2.65625 1.855469 -2.65625 C 1.652344 -2.65625 1.507812 -2.570312 1.425781 -2.394531 C 1.339844 -2.21875 1.300781 -1.902344 1.300781 -1.441406 C 1.300781 -0.984375 1.339844 -0.667969 1.425781 -0.492188 C 1.507812 -0.316406 1.652344 -0.226562 1.855469 -0.226562 M 1.855469 0.078125 C 1.347656 0.078125 0.949219 -0.0546875 0.660156 -0.328125 C 0.371094 -0.597656 0.226562 -0.96875 0.226562 -1.441406 C 0.226562 -1.917969 0.371094 -2.292969 0.660156 -2.558594 C 0.949219 -2.828125 1.347656 -2.960938 1.855469 -2.960938 C 2.367188 -2.960938 2.765625 -2.828125 3.050781 -2.558594 C 3.339844 -2.292969 3.484375 -1.917969 3.484375 -1.441406 C 3.484375 -0.96875 3.339844 -0.597656 3.050781 -0.328125 C 2.761719 -0.0546875 2.363281 0.078125 1.855469 0.078125 Z"/></g><g id="glyph-1-6"><path d="M 2.984375 -2.917969 L 2.984375 -2.054688 L 2.675781 -2.054688 C 2.667969 -2.210938 2.625 -2.324219 2.554688 -2.398438 C 2.480469 -2.472656 2.375 -2.511719 2.238281 -2.511719 C 2.027344 -2.511719 1.863281 -2.417969 1.742188 -2.234375 C 1.621094 -2.050781 1.558594 -1.796875 1.558594 -1.46875 L 1.558594 -0.328125 L 2.082031 -0.328125 L 2.082031 0 L 0.191406 0 L 0.191406 -0.328125 L 0.597656 -0.328125 L 0.597656 -2.554688 L 0.160156 -2.554688 L 0.160156 -2.882812 L 1.558594 -2.882812 L 1.558594 -2.371094 C 1.652344 -2.570312 1.777344 -2.71875 1.933594 -2.816406 C 2.085938 -2.914062 2.277344 -2.960938 2.5 -2.960938 C 2.558594 -2.960938 2.625 -2.957031 2.707031 -2.949219 C 2.785156 -2.941406 2.878906 -2.929688 2.984375 -2.917969 Z"/></g><g id="glyph-1-7"><path d="M 0.261719 -0.0859375 L 0.261719 -0.890625 L 0.566406 -0.890625 C 0.59375 -0.675781 0.671875 -0.511719 0.808594 -0.398438 C 0.945312 -0.285156 1.128906 -0.226562 1.363281 -0.226562 C 1.558594 -0.226562 1.707031 -0.261719 1.8125 -0.328125 C 1.914062 -0.398438 1.96875 -0.496094 1.96875 -0.621094 C 1.96875 -0.738281 1.933594 -0.828125 1.867188 -0.890625 C 1.800781 -0.953125 1.675781 -1.007812 1.484375 -1.054688 L 1.085938 -1.15625 C 0.789062 -1.230469 0.574219 -1.335938 0.441406 -1.472656 C 0.304688 -1.613281 0.238281 -1.800781 0.238281 -2.035156 C 0.238281 -2.347656 0.347656 -2.582031 0.5625 -2.734375 C 0.78125 -2.886719 1.117188 -2.960938 1.566406 -2.960938 C 1.738281 -2.960938 1.917969 -2.949219 2.113281 -2.921875 C 2.304688 -2.890625 2.515625 -2.847656 2.75 -2.789062 L 2.75 -2.0625 L 2.445312 -2.0625 C 2.429688 -2.257812 2.359375 -2.40625 2.234375 -2.507812 C 2.109375 -2.605469 1.933594 -2.65625 1.699219 -2.65625 C 1.503906 -2.65625 1.359375 -2.625 1.257812 -2.5625 C 1.15625 -2.5 1.105469 -2.410156 1.105469 -2.289062 C 1.105469 -2.191406 1.136719 -2.113281 1.195312 -2.058594 C 1.25 -2.003906 1.355469 -1.957031 1.503906 -1.917969 L 1.898438 -1.816406 C 2.277344 -1.722656 2.539062 -1.601562 2.683594 -1.460938 C 2.828125 -1.320312 2.898438 -1.125 2.898438 -0.875 C 2.898438 -0.546875 2.785156 -0.308594 2.550781 -0.152344 C 2.320312 0 1.957031 0.078125 1.46875 0.078125 C 1.289062 0.078125 1.097656 0.0664062 0.898438 0.0390625 C 0.695312 0.0117188 0.484375 -0.03125 0.261719 -0.0859375 Z"/></g><g id="glyph-2-0"><path d="M 0.316406 -1.496094 L 0.316406 -2.09375 L 3.53125 -2.09375 L 3.175781 -2.929688 L 3.316406 -2.929688 L 4.449219 -1.808594 L 4.449219 -1.78125 L 3.316406 -0.660156 L 3.175781 -0.660156 L 3.53125 -1.496094 Z"/></g><g id="glyph-3-0"><path d="M 1.5 -1.585938 L 1.5 -1.300781 C 1.5 -0.964844 1.542969 -0.71875 1.628906 -0.570312 C 1.714844 -0.417969 1.855469 -0.34375 2.046875 -0.34375 C 2.242188 -0.34375 2.382812 -0.425781 2.460938 -0.582031 C 2.542969 -0.742188 2.582031 -1.027344 2.582031 -1.441406 C 2.582031 -1.859375 2.542969 -2.144531 2.460938 -2.300781 C 2.382812 -2.460938 2.242188 -2.539062 2.046875 -2.539062 C 1.855469 -2.539062 1.714844 -2.464844 1.628906 -2.3125 C 1.542969 -2.164062 1.5 -1.921875 1.5 -1.585938 M 0.539062 -2.554688 L 0.128906 -2.554688 L 0.128906 -2.882812 L 1.5 -2.882812 L 1.5 -2.515625 C 1.582031 -2.667969 1.691406 -2.78125 1.828125 -2.851562 C 1.964844 -2.925781 2.136719 -2.960938 2.339844 -2.960938 C 2.75 -2.960938 3.074219 -2.828125 3.308594 -2.558594 C 3.542969 -2.285156 3.664062 -1.914062 3.664062 -1.441406 C 3.664062 -0.972656 3.542969 -0.597656 3.308594 -0.328125 C 3.074219 -0.0585938 2.75 0.078125 2.339844 0.078125 C 2.136719 0.078125 1.964844 0.0429688 1.828125 -0.03125 C 1.691406 -0.105469 1.582031 -0.214844 1.5 -0.367188 L 1.5 0.828125 L 1.945312 0.828125 L 1.945312 1.15625 L 0.128906 1.15625 L 0.128906 0.828125 L 0.539062 0.828125 Z"/></g><g id="glyph-3-1"><path d="M 1.558594 -0.328125 L 1.972656 -0.328125 L 1.972656 0 L 0.191406 0 L 0.191406 -0.328125 L 0.597656 -0.328125 L 0.597656 -3.894531 L 0.191406 -3.894531 L 0.191406 -4.222656 L 1.558594 -4.222656 Z"/></g><g id="glyph-3-2"><path d="M 3.058594 -1.773438 L 3.058594 -0.328125 L 3.472656 -0.328125 L 3.472656 0 L 2.101562 0 L 2.101562 -0.367188 C 1.972656 -0.214844 1.832031 -0.101562 1.675781 -0.03125 C 1.519531 0.0429688 1.34375 0.078125 1.144531 0.078125 C 0.851562 0.078125 0.625 0 0.464844 -0.160156 C 0.308594 -0.316406 0.226562 -0.542969 0.226562 -0.839844 C 0.226562 -1.160156 0.339844 -1.40625 0.566406 -1.566406 C 0.796875 -1.726562 1.136719 -1.808594 1.59375 -1.808594 L 2.101562 -1.808594 L 2.101562 -1.976562 C 2.101562 -2.210938 2.042969 -2.382812 1.933594 -2.496094 C 1.824219 -2.605469 1.652344 -2.660156 1.421875 -2.660156 C 1.230469 -2.660156 1.082031 -2.621094 0.976562 -2.542969 C 0.875 -2.464844 0.800781 -2.335938 0.757812 -2.15625 L 0.449219 -2.15625 L 0.449219 -2.777344 C 0.621094 -2.839844 0.800781 -2.886719 0.984375 -2.917969 C 1.167969 -2.945312 1.363281 -2.960938 1.566406 -2.960938 C 2.082031 -2.960938 2.460938 -2.867188 2.699219 -2.675781 C 2.941406 -2.484375 3.058594 -2.183594 3.058594 -1.773438 M 2.101562 -0.90625 L 2.101562 -1.484375 L 1.738281 -1.484375 C 1.558594 -1.484375 1.421875 -1.433594 1.328125 -1.335938 C 1.230469 -1.238281 1.183594 -1.101562 1.183594 -0.917969 C 1.183594 -0.734375 1.21875 -0.597656 1.289062 -0.507812 C 1.355469 -0.417969 1.464844 -0.371094 1.605469 -0.371094 C 1.753906 -0.371094 1.875 -0.421875 1.964844 -0.519531 C 2.054688 -0.617188 2.101562 -0.746094 2.101562 -0.90625 Z"/></g><g id="glyph-3-3"><path d="M 0.191406 0 L 0.191406 -0.328125 L 0.597656 -0.328125 L 0.597656 -2.554688 L 0.191406 -2.554688 L 0.191406 -2.882812 L 1.558594 -2.882812 L 1.558594 -2.476562 C 1.675781 -2.648438 1.808594 -2.773438 1.957031 -2.847656 C 2.105469 -2.925781 2.292969 -2.960938 2.515625 -2.960938 C 2.839844 -2.960938 3.085938 -2.867188 3.25 -2.675781 C 3.417969 -2.484375 3.5 -2.203125 3.5 -1.832031 L 3.5 -0.328125 L 3.910156 -0.328125 L 3.910156 0 L 2.1875 0 L 2.1875 -0.328125 L 2.539062 -0.328125 L 2.539062 -1.859375 C 2.539062 -2.105469 2.507812 -2.273438 2.445312 -2.371094 C 2.382812 -2.464844 2.273438 -2.511719 2.121094 -2.511719 C 1.929688 -2.511719 1.785156 -2.441406 1.695312 -2.300781 C 1.605469 -2.15625 1.558594 -1.929688 1.558594 -1.621094 L 1.558594 -0.328125 L 1.914062 -0.328125 L 1.914062 0 Z"/></g><g id="glyph-3-4"><path d="M 2.226562 -1.628906 C 2.226562 -2.007812 2.191406 -2.273438 2.121094 -2.425781 C 2.050781 -2.578125 1.929688 -2.65625 1.761719 -2.65625 C 1.597656 -2.65625 1.476562 -2.582031 1.40625 -2.429688 C 1.335938 -2.28125 1.300781 -2.027344 1.300781 -1.675781 L 1.300781 -1.628906 L 2.226562 -1.628906 M 3.28125 -1.304688 L 1.300781 -1.304688 L 1.300781 -1.28125 C 1.300781 -0.910156 1.355469 -0.640625 1.46875 -0.476562 C 1.578125 -0.3125 1.761719 -0.226562 2.011719 -0.226562 C 2.21875 -0.226562 2.386719 -0.28125 2.515625 -0.394531 C 2.644531 -0.503906 2.726562 -0.664062 2.761719 -0.875 L 3.210938 -0.875 C 3.132812 -0.546875 2.980469 -0.304688 2.75 -0.152344 C 2.515625 0 2.191406 0.078125 1.777344 0.078125 C 1.277344 0.078125 0.894531 -0.0546875 0.628906 -0.316406 C 0.359375 -0.578125 0.226562 -0.953125 0.226562 -1.441406 C 0.226562 -1.921875 0.363281 -2.292969 0.636719 -2.5625 C 0.910156 -2.828125 1.289062 -2.960938 1.777344 -2.960938 C 2.253906 -2.960938 2.621094 -2.820312 2.875 -2.539062 C 3.128906 -2.257812 3.265625 -1.847656 3.28125 -1.304688 Z"/></g></g></defs><g fill="#0366D6" fill-opacity="1"><use x="30" y="25.217" xlink:href="#glyph-0-0"/><use x="32" y="25.217" xlink:href="#glyph-0-1"/><use x="36" y="25.217" xlink:href="#glyph-0-2"/><use x="40" y="25.217" xlink:href="#glyph-0-3"/><use x="44" y="25.217" xlink:href="#glyph-0-4"/><use x="48" y="25.217" xlink:href="#glyph-0-3"/><use x="52" y="25.217" xlink:href="#glyph-0-1"/><use x="56" y="25.217" xlink:href="#glyph-0-2"/><use x="60" y="25.217" xlink:href="#glyph-0-3"/><use x="64" y="25.217" xlink:href="#glyph-0-1"/><use x="68" y="25.217" xlink:href="#glyph-0-5"/></g><g fill="#212529" fill-opacity="1"><use x="71" y="25.217" xlink:href="#glyph-1-0"/><use x="73" y="25.217" xlink:href="#glyph-1-1"/><use x="76" y="25.217" xlink:href="#glyph-1-2"/><use x="80" y="25.217" xlink:href="#glyph-1-3"/><use x="83" y="25.217" xlink:href="#glyph-1-4"/><use x="86" y="25.217" xlink:href="#glyph-1-5"/><use x="90" y="25.217" xlink:href="#glyph-1-6"/><use x="93" y="25.217" xlink:href="#glyph-1-7"/><use x="96" y="25.217" xlink:href="#glyph-1-0"/></g><g fill="#212529" fill-opacity="1"><use x="30" y="30.635" xlink:href="#glyph-2-0"/><use x="35" y="30.635" xlink:href="#glyph-2-1"/></g><g fill="#0366D6" fill-opacity="1"><use x="37" y="30.635" xlink:href="#glyph-3-0"/><use x="41" y="30.635" xlink:href="#glyph-3-1"/><use x="43" y="30.635" xlink:href="#glyph-3-2"/><use x="47" y="30.635" xlink:href="#glyph-3-3"/><use x="51" y="30.635" xlink:href="#glyph-3-4"/></g></svg>