<?xml version="1.0" encoding="UTF-8"?>
<svg xmlns="http://www.w3.org/2000/svg" xmlns:xlink="http://www.w3.org/1999/xlink" width="1920" height="1080" viewBox="0 0 1920 1080">
<defs>
<g>
<g id="glyph-0-0">
<path d="M 1.027344 -0.46875 L 1.027344 -2.773438 L 1.855469 -2.773438 C 1.980469 -2.042969 2.277344 -1.5 2.746094 -1.140625 C 3.214844 -0.777344 3.863281 -0.597656 4.695312 -0.597656 C 5.367188 -0.597656 5.878906 -0.726562 6.230469 -0.984375 C 6.582031 -1.238281 6.757812 -1.613281 6.757812 -2.109375 C 6.757812 -2.5 6.636719 -2.804688 6.398438 -3.019531 C 6.160156 -3.238281 5.667969 -3.441406 4.921875 -3.625 L 3.464844 -3.984375 C 2.511719 -4.226562 1.84375 -4.566406 1.457031 -4.996094 C 1.070312 -5.429688 0.878906 -6.042969 0.878906 -6.84375 C 0.878906 -7.804688 1.199219 -8.554688 1.839844 -9.09375 C 2.480469 -9.628906 3.375 -9.894531 4.53125 -9.894531 C 5.101562 -9.894531 5.691406 -9.847656 6.304688 -9.753906 C 6.917969 -9.65625 7.554688 -9.515625 8.214844 -9.324219 L 8.214844 -7.175781 L 7.390625 -7.175781 C 7.261719 -7.84375 6.988281 -8.332031 6.5625 -8.640625 C 6.136719 -8.953125 5.53125 -9.109375 4.746094 -9.109375 C 4.105469 -9.109375 3.617188 -8.996094 3.289062 -8.773438 C 2.964844 -8.550781 2.800781 -8.214844 2.800781 -7.773438 C 2.800781 -7.371094 2.914062 -7.0625 3.136719 -6.851562 C 3.363281 -6.640625 3.917969 -6.421875 4.796875 -6.199219 L 6.257812 -5.839844 C 7.160156 -5.613281 7.8125 -5.261719 8.21875 -4.785156 C 8.625 -4.308594 8.828125 -3.648438 8.828125 -2.8125 C 8.828125 -1.832031 8.488281 -1.085938 7.8125 -0.578125 C 7.136719 -0.0664062 6.140625 0.1875 4.824219 0.1875 C 4.191406 0.1875 3.5625 0.132812 2.9375 0.0273438 C 2.3125 -0.0820312 1.675781 -0.246094 1.027344 -0.46875 Z "/>
</g>
<g id="glyph-0-1">
<path d="M 3.601562 -3.800781 L 3.601562 -3.117188 C 3.601562 -2.3125 3.703125 -1.726562 3.910156 -1.367188 C 4.117188 -1.007812 4.449219 -0.828125 4.910156 -0.828125 C 5.382812 -0.828125 5.714844 -1.019531 5.90625 -1.398438 C 6.101562 -1.78125 6.199219 -2.46875 6.199219 -3.464844 C 6.199219 -4.457031 6.101562 -5.144531 5.90625 -5.523438 C 5.714844 -5.902344 5.382812 -6.09375 4.910156 -6.09375 C 4.449219 -6.09375 4.117188 -5.914062 3.910156 -5.554688 C 3.703125 -5.191406 3.601562 -4.609375 3.601562 -3.800781 M 1.296875 -6.132812 L 0.304688 -6.132812 L 0.304688 -6.921875 L 3.601562 -6.921875 L 3.601562 -6.042969 C 3.796875 -6.402344 4.058594 -6.667969 4.386719 -6.84375 C 4.71875 -7.019531 5.125 -7.109375 5.613281 -7.109375 C 6.597656 -7.109375 7.371094 -6.785156 7.9375 -6.136719 C 8.507812 -5.488281 8.789062 -4.597656 8.789062 -3.464844 C 8.789062 -2.332031 8.507812 -1.4375 7.9375 -0.789062 C 7.371094 -0.136719 6.597656 0.1875 5.613281 0.1875 C 5.125 0.1875 4.71875 0.101562 4.386719 -0.0742188 C 4.058594 -0.25 3.796875 -0.519531 3.601562 -0.878906 L 3.601562 1.984375 L 4.667969 1.984375 L 4.667969 2.773438 L 0.304688 2.773438 L 0.304688 1.984375 L 1.296875 1.984375 Z "/>
</g>
<g id="glyph-0-2">
<path d="M 7.34375 -4.25 L 7.34375 -0.789062 L 8.332031 -0.789062 L 8.332031 0 L 5.039062 0 L 5.039062 -0.878906 C 4.734375 -0.515625 4.398438 -0.246094 4.023438 -0.0703125 C 3.648438 0.101562 3.226562 0.1875 2.746094 0.1875 C 2.039062 0.1875 1.496094 0 1.117188 -0.378906 C 0.738281 -0.761719 0.546875 -1.304688 0.546875 -2.011719 C 0.546875 -2.789062 0.820312 -3.371094 1.363281 -3.757812 C 1.910156 -4.144531 2.730469 -4.335938 3.828125 -4.335938 L 5.039062 -4.335938 L 5.039062 -4.746094 C 5.039062 -5.304688 4.90625 -5.71875 4.640625 -5.984375 C 4.378906 -6.253906 3.96875 -6.386719 3.410156 -6.386719 C 2.953125 -6.386719 2.597656 -6.292969 2.347656 -6.101562 C 2.097656 -5.914062 1.921875 -5.605469 1.816406 -5.175781 L 1.082031 -5.175781 L 1.082031 -6.667969 C 1.492188 -6.8125 1.921875 -6.925781 2.363281 -7 C 2.804688 -7.074219 3.273438 -7.109375 3.761719 -7.109375 C 5 -7.109375 5.90625 -6.878906 6.480469 -6.417969 C 7.054688 -5.960938 7.34375 -5.238281 7.34375 -4.25 M 5.039062 -2.175781 L 5.039062 -3.5625 L 4.171875 -3.5625 C 3.742188 -3.5625 3.414062 -3.445312 3.183594 -3.210938 C 2.953125 -2.976562 2.839844 -2.640625 2.839844 -2.199219 C 2.839844 -1.761719 2.921875 -1.433594 3.089844 -1.21875 C 3.257812 -1 3.511719 -0.890625 3.855469 -0.890625 C 4.210938 -0.890625 4.496094 -1.007812 4.714844 -1.242188 C 4.929688 -1.476562 5.039062 -1.789062 5.039062 -2.175781 Z "/>
</g>
<g id="glyph-0-3">
<path d="M 0.457031 0 L 0.457031 -0.789062 L 1.4375 -0.789062 L 1.4375 -6.132812 L 0.457031 -6.132812 L 0.457031 -6.921875 L 3.742188 -6.921875 L 3.742188 -5.945312 C 4.019531 -6.355469 4.339844 -6.652344 4.695312 -6.835938 C 5.050781 -7.019531 5.5 -7.109375 6.042969 -7.109375 C 6.820312 -7.109375 7.40625 -6.878906 7.800781 -6.421875 C 8.199219 -5.964844 8.398438 -5.289062 8.398438 -4.402344 L 8.398438 -0.789062 L 9.386719 -0.789062 L 9.386719 0 L 5.253906 0 L 5.253906 -0.789062 L 6.09375 -0.789062 L 6.09375 -4.464844 C 6.09375 -5.050781 6.019531 -5.457031 5.867188 -5.6875 C 5.71875 -5.914062 5.460938 -6.027344 5.089844 -6.027344 C 4.625 -6.027344 4.285156 -5.859375 4.070312 -5.515625 C 3.851562 -5.175781 3.742188 -4.636719 3.742188 -3.894531 L 3.742188 -0.789062 L 4.589844 -0.789062 L 4.589844 0 Z "/>
</g>
<g id="glyph-0-4">
<path d="M 7.375 1.386719 L 7.375 2.175781 L 6.414062 2.175781 C 5.386719 2.175781 4.699219 2.121094 4.34375 2.015625 C 3.988281 1.910156 3.699219 1.722656 3.484375 1.453125 C 3.355469 1.296875 3.265625 1.097656 3.210938 0.859375 C 3.160156 0.621094 3.132812 0.257812 3.132812 -0.226562 L 3.132812 -1.855469 C 3.132812 -2.511719 3.015625 -2.964844 2.78125 -3.210938 C 2.550781 -3.460938 2.128906 -3.585938 1.515625 -3.585938 L 1.121094 -3.585938 L 1.121094 -4.375 L 1.515625 -4.375 C 2.128906 -4.375 2.550781 -4.5 2.78125 -4.75 C 3.015625 -5 3.132812 -5.453125 3.132812 -6.105469 L 3.132812 -7.734375 C 3.132812 -8.21875 3.160156 -8.582031 3.210938 -8.820312 C 3.265625 -9.054688 3.355469 -9.253906 3.484375 -9.414062 C 3.699219 -9.679688 3.988281 -9.863281 4.34375 -9.96875 C 4.699219 -10.078125 5.386719 -10.128906 6.414062 -10.128906 L 7.375 -10.128906 L 7.375 -9.347656 L 6.707031 -9.347656 C 6.21875 -9.347656 5.886719 -9.246094 5.710938 -9.042969 C 5.53125 -8.839844 5.441406 -8.441406 5.441406 -7.851562 L 5.441406 -6.09375 C 5.441406 -5.402344 5.335938 -4.910156 5.121094 -4.617188 C 4.90625 -4.328125 4.519531 -4.113281 3.957031 -3.984375 C 4.527344 -3.835938 4.917969 -3.621094 5.125 -3.332031 C 5.335938 -3.046875 5.441406 -2.558594 5.441406 -1.867188 L 5.441406 -0.105469 C 5.441406 0.480469 5.53125 0.875 5.710938 1.082031 C 5.886719 1.285156 6.21875 1.386719 6.707031 1.386719 Z "/>
</g>
<g id="glyph-0-5">
<path d="M 5.613281 2.078125 C 4.148438 1.535156 3.058594 0.757812 2.335938 -0.253906 C 1.617188 -1.265625 1.257812 -2.523438 1.257812 -4.023438 C 1.257812 -5.523438 1.613281 -6.773438 2.324219 -7.773438 C 3.035156 -8.773438 4.132812 -9.558594 5.613281 -10.128906 L 5.613281 -9.347656 C 4.925781 -8.933594 4.433594 -8.316406 4.132812 -7.496094 C 3.828125 -6.679688 3.679688 -5.519531 3.679688 -4.023438 C 3.679688 -2.53125 3.828125 -1.375 4.132812 -0.554688 C 4.433594 0.261719 4.925781 0.878906 5.613281 1.296875 Z "/>
</g>
<g id="glyph-0-6">
<path d="M 1.828125 0 L 1.828125 -0.789062 L 3.652344 -0.789062 L 3.652344 -8.652344 L 1.628906 -7.453125 L 1.628906 -8.425781 L 4.070312 -9.894531 L 6.121094 -9.894531 L 6.121094 -0.789062 L 7.949219 -0.789062 L 7.949219 0 Z "/>
</g>
<g id="glyph-0-7">
<path d="M 0.175781 1.28125 C 0.628906 0.917969 0.960938 0.511719 1.171875 0.0585938 C 1.382812 -0.394531 1.492188 -0.917969 1.492188 -1.515625 L 1.492188 -2.078125 L 3.347656 -2.078125 L 3.347656 -2.023438 C 3.347656 -1.066406 3.144531 -0.238281 2.742188 0.453125 C 2.34375 1.144531 1.726562 1.726562 0.890625 2.199219 Z "/>
</g>
<g id="glyph-0-8">
<path d="M 4.640625 -0.574219 C 5.164062 -0.574219 5.519531 -0.808594 5.710938 -1.28125 C 5.90625 -1.753906 6.003906 -2.945312 6.003906 -4.851562 C 6.003906 -6.742188 5.90625 -7.929688 5.710938 -8.410156 C 5.519531 -8.894531 5.164062 -9.132812 4.640625 -9.132812 C 4.121094 -9.132812 3.765625 -8.898438 3.570312 -8.425781 C 3.378906 -7.953125 3.28125 -6.761719 3.28125 -4.851562 C 3.28125 -2.945312 3.378906 -1.753906 3.570312 -1.28125 C 3.765625 -0.808594 4.121094 -0.574219 4.640625 -0.574219 M 4.640625 0.1875 C 3.34375 0.1875 2.351562 -0.246094 1.660156 -1.109375 C 0.96875 -1.976562 0.625 -3.222656 0.625 -4.851562 C 0.625 -6.476562 0.96875 -7.726562 1.660156 -8.59375 C 2.351562 -9.460938 3.34375 -9.894531 4.640625 -9.894531 C 5.933594 -9.894531 6.925781 -9.460938 7.617188 -8.59375 C 8.308594 -7.726562 8.652344 -6.476562 8.652344 -4.851562 C 8.652344 -3.222656 8.308594 -1.976562 7.617188 -1.109375 C 6.925781 -0.246094 5.933594 0.1875 4.640625 0.1875 Z "/>
</g>
<g id="glyph-0-9">
<path d="M 0.675781 2.078125 L 0.675781 1.296875 C 1.363281 0.878906 1.855469 0.261719 2.15625 -0.554688 C 2.460938 -1.375 2.609375 -2.53125 2.609375 -4.023438 C 2.609375 -5.519531 2.460938 -6.679688 2.15625 -7.496094 C 1.855469 -8.316406 1.363281 -8.933594 0.675781 -9.347656 L 0.675781 -10.128906 C 2.15625 -9.558594 3.253906 -8.773438 3.96875 -7.773438 C 4.683594 -6.773438 5.039062 -5.523438 5.039062 -4.023438 C 5.039062 -2.523438 4.675781 -1.265625 3.953125 -0.253906 C 3.230469 0.757812 2.140625 1.535156 0.675781 2.078125 Z "/>
</g>
<g id="glyph-0-10">
</g>
<g id="glyph-0-11">
<path d="M 1.210938 1.386719 L 1.867188 1.386719 C 2.351562 1.386719 2.679688 1.285156 2.859375 1.082031 C 3.042969 0.875 3.132812 0.480469 3.132812 -0.105469 L 3.132812 -1.867188 C 3.132812 -2.550781 3.238281 -3.035156 3.449219 -3.328125 C 3.664062 -3.617188 4.054688 -3.835938 4.628906 -3.984375 C 4.066406 -4.113281 3.675781 -4.328125 3.457031 -4.621094 C 3.238281 -4.917969 3.132812 -5.40625 3.132812 -6.09375 L 3.132812 -7.851562 C 3.132812 -8.441406 3.042969 -8.839844 2.859375 -9.042969 C 2.679688 -9.246094 2.351562 -9.347656 1.867188 -9.347656 L 1.210938 -9.347656 L 1.210938 -10.128906 L 2.160156 -10.128906 C 3.1875 -10.128906 3.875 -10.078125 4.230469 -9.96875 C 4.585938 -9.863281 4.875 -9.679688 5.089844 -9.414062 C 5.21875 -9.253906 5.308594 -9.054688 5.359375 -8.820312 C 5.414062 -8.582031 5.441406 -8.21875 5.441406 -7.734375 L 5.441406 -6.105469 C 5.441406 -5.453125 5.558594 -5 5.789062 -4.75 C 6.023438 -4.5 6.441406 -4.375 7.050781 -4.375 L 7.453125 -4.375 L 7.453125 -3.585938 L 7.050781 -3.585938 C 6.441406 -3.585938 6.023438 -3.460938 5.789062 -3.210938 C 5.558594 -2.964844 5.441406 -2.511719 5.441406 -1.855469 L 5.441406 -0.226562 C 5.441406 0.257812 5.414062 0.621094 5.359375 0.859375 C 5.308594 1.097656 5.21875 1.296875 5.089844 1.453125 C 4.875 1.722656 4.585938 1.910156 4.230469 2.015625 C 3.875 2.121094 3.1875 2.175781 2.160156 2.175781 L 1.210938 2.175781 Z "/>
</g>
<g id="glyph-0-12">
<path d="M 1.414062 -3.445312 L 9.757812 -3.445312 L 9.757812 -1.953125 L 1.414062 -1.953125 L 1.414062 -3.445312 M 1.414062 -6.425781 L 9.757812 -6.425781 L 9.757812 -4.933594 L 1.414062 -4.933594 Z "/>
</g>
<g id="glyph-0-13">
<path d="M 7.078125 -4.746094 C 7.464844 -4.691406 7.789062 -4.5625 8.054688 -4.363281 C 8.316406 -4.164062 8.546875 -3.875 8.742188 -3.496094 L 10.164062 -0.789062 L 11.160156 -0.789062 L 11.160156 0 L 7.960938 0 L 6.414062 -2.9375 C 6.113281 -3.542969 5.859375 -3.929688 5.648438 -4.097656 C 5.4375 -4.265625 5.144531 -4.347656 4.773438 -4.347656 L 4.375 -4.347656 L 4.375 -0.789062 L 5.625 -0.789062 L 5.625 0 L 0.625 0 L 0.625 -0.789062 L 1.867188 -0.789062 L 1.867188 -8.933594 L 0.625 -8.933594 L 0.625 -9.71875 L 6.171875 -9.71875 C 7.300781 -9.71875 8.171875 -9.492188 8.785156 -9.039062 C 9.398438 -8.585938 9.707031 -7.941406 9.707031 -7.109375 C 9.707031 -6.433594 9.488281 -5.898438 9.054688 -5.503906 C 8.617188 -5.113281 7.957031 -4.859375 7.078125 -4.746094 M 4.375 -5.128906 L 5.226562 -5.128906 C 5.835938 -5.128906 6.304688 -5.296875 6.628906 -5.625 C 6.957031 -5.953125 7.121094 -6.425781 7.121094 -7.039062 C 7.121094 -7.648438 6.957031 -8.117188 6.628906 -8.445312 C 6.304688 -8.769531 5.835938 -8.933594 5.226562 -8.933594 L 4.375 -8.933594 Z "/>
</g>
<g id="glyph-0-14">
<path d="M 1.222656 -8.359375 L 0.613281 -8.359375 L 0.613281 -9.628906 C 0.925781 -9.714844 1.246094 -9.78125 1.570312 -9.828125 C 1.898438 -9.875 2.238281 -9.894531 2.585938 -9.894531 C 3.371094 -9.894531 3.980469 -9.757812 4.414062 -9.480469 C 4.847656 -9.203125 5.066406 -8.816406 5.066406 -8.320312 C 5.066406 -7.964844 4.945312 -7.644531 4.710938 -7.367188 C 4.472656 -7.085938 4.015625 -6.75 3.332031 -6.359375 L 1.746094 -5.457031 L 4.441406 -5.457031 L 4.441406 -6.082031 L 5.089844 -6.082031 L 5.089844 -4.453125 L 0.558594 -4.453125 L 0.558594 -5.320312 L 1.398438 -5.867188 C 2.210938 -6.398438 2.726562 -6.820312 2.941406 -7.121094 C 3.160156 -7.425781 3.269531 -7.78125 3.269531 -8.183594 C 3.269531 -8.546875 3.179688 -8.832031 2.996094 -9.039062 C 2.816406 -9.246094 2.570312 -9.347656 2.253906 -9.347656 C 1.980469 -9.347656 1.746094 -9.257812 1.558594 -9.078125 C 1.371094 -8.898438 1.257812 -8.660156 1.222656 -8.359375 Z "/>
</g>
</g>
</defs>
<g fill="rgb(12.941176%, 14.509804%, 16.078431%)" fill-opacity="1">
<use xlink:href="#glyph-0-0" x="30" y="32.519531"/>
<use xlink:href="#glyph-0-1" x="40" y="32.519531"/>
<use xlink:href="#glyph-0-2" x="49" y="32.519531"/>
<use xlink:href="#glyph-0-3" x="58" y="32.519531"/>
<use xlink:href="#glyph-0-4" x="68" y="32.519531"/>
<use xlink:href="#glyph-0-5" x="77" y="32.519531"/>
<use xlink:href="#glyph-0-6" x="83" y="32.519531"/>
<use xlink:href="#glyph-0-7" x="92" y="32.519531"/>
<use xlink:href="#glyph-0-8" x="97" y="32.519531"/>
<use xlink:href="#glyph-0-9" x="106" y="32.519531"/>
<use xlink:href="#glyph-0-7" x="112" y="32.519531"/>
<use xlink:href="#glyph-0-10" x="117" y="32.519531"/>
<use xlink:href="#glyph-0-5" x="122" y="32.519531"/>
<use xlink:href="#glyph-0-8" x="128" y="32.519531"/>
<use xlink:href="#glyph-0-7" x="137" y="32.519531"/>
<use xlink:href="#glyph-0-6" x="142" y="32.519531"/>
<use xlink:href="#glyph-0-9" x="151" y="32.519531"/>
<use xlink:href="#glyph-0-11" x="157" y="32.519531"/>
<use xlink:href="#glyph-0-10" x="166" y="32.519531"/>
<use xlink:href="#glyph-0-12" x="171" y="32.519531"/>
<use xlink:href="#glyph-0-10" x="182" y="32.519531"/>
<use xlink:href="#glyph-0-13" x="187" y="32.519531"/>
<use xlink:href="#glyph-0-14" x="198" y="32.519531"/>
</g>
</svg>
